<?xml version="1.0" standalone="no"?>
<!DOCTYPE svg PUBLIC "-//W3C//DTD SVG 20010904//EN"
 "http://www.w3.org/TR/2001/REC-SVG-20010904/DTD/svg10.dtd">
<svg version="1.0" xmlns="http://www.w3.org/2000/svg"
 width="462.000000pt" height="173.000000pt" viewBox="0 0 462.000000 173.000000"
 preserveAspectRatio="xMidYMid meet">

<g transform="translate(0.000000,173.000000) scale(0.100000,-0.100000)"
fill="#000000" stroke="none">
<path d="M0 1625 c0 -58 3 -105 8 -105 16 0 52 32 52 45 0 8 11 22 24 30 19
13 28 14 43 4 16 -10 24 -7 46 13 15 14 27 32 27 40 0 18 50 42 62 30 13 -13
74 9 87 30 11 17 2 18 -169 18 l-180 0 0 -105z"/>
<path d="M432 1709 c4 -31 32 -46 52 -30 9 8 16 22 16 32 0 15 -7 19 -36 19
-31 0 -35 -3 -32 -21z"/>
<path d="M538 1723 c7 -3 16 -2 19 1 4 3 -2 6 -13 5 -11 0 -14 -3 -6 -6z"/>
<path d="M594 1716 c-3 -8 -20 -20 -37 -27 -39 -16 -77 -48 -77 -64 0 -23 -41
-49 -78 -50 -20 0 -59 -13 -87 -28 -27 -14 -64 -33 -82 -41 -17 -9 -34 -20
-38 -26 -4 -6 -21 -17 -38 -25 -18 -8 -59 -30 -92 -48 l-60 -33 -3 -217 -2
-218 30 16 c16 8 30 22 30 30 0 26 31 46 61 40 34 -8 76 17 81 48 4 28 55 48
68 27 7 -10 10 14 10 70 0 104 26 168 90 223 68 58 110 67 300 67 152 0 168 2
184 19 11 12 30 19 48 19 16 -1 33 3 36 8 4 5 19 15 35 23 15 8 27 22 27 31 0
27 27 43 63 37 36 -6 72 17 78 48 3 11 17 26 32 35 24 13 29 13 37 0 7 -12 12
-12 22 -2 6 6 18 12 25 12 8 0 23 9 35 20 l22 20 -357 0 c-298 0 -359 -2 -363
-14z"/>
<path d="M1375 1720 c-8 -13 13 -50 28 -50 24 0 50 26 44 44 -7 18 -62 23 -72
6z m45 -10 c0 -5 -4 -10 -10 -10 -5 0 -10 5 -10 10 0 6 5 10 10 10 6 0 10 -4
10 -10z"/>
<path d="M1488 1723 c7 -3 16 -2 19 1 4 3 -2 6 -13 5 -11 0 -14 -3 -6 -6z"/>
<path d="M1521 1704 c-14 -14 -30 -23 -37 -20 -6 2 -22 -9 -35 -26 -61 -77
-78 -90 -109 -83 -22 5 -38 1 -59 -14 -16 -12 -36 -21 -44 -21 -8 0 -20 -7
-27 -15 -6 -8 -21 -17 -32 -21 -11 -3 -29 -15 -39 -25 -19 -19 -17 -19 81 -19
129 0 190 -21 253 -88 24 -27 50 -65 56 -85 7 -20 21 -42 32 -47 23 -13 25
-43 4 -60 -13 -10 -15 -52 -15 -257 0 -207 2 -244 15 -249 19 -8 19 -38 1 -53
-9 -8 -15 -45 -18 -119 -3 -69 -11 -122 -23 -149 -22 -54 -109 -135 -162 -151
-29 -9 -162 -12 -459 -12 -419 0 -419 0 -469 24 -58 26 -134 106 -142 148 -7
34 -19 44 -27 23 -3 -8 -12 -15 -19 -15 -8 0 -25 -9 -38 -19 -14 -10 -47 -31
-74 -47 -28 -15 -68 -37 -90 -50 l-40 -22 -3 -116 -3 -116 176 0 c96 0 175 4
175 8 0 11 120 75 120 65 0 -4 4 -3 8 3 17 25 60 44 99 44 37 0 43 -3 49 -25
4 -17 1 -32 -10 -44 -9 -10 -16 -22 -16 -28 0 -6 -6 -14 -12 -16 -7 -3 146 -6
340 -6 324 -1 356 0 380 17 15 10 45 27 67 37 21 11 54 30 73 42 35 23 96 28
120 10 18 -14 15 -44 -6 -59 -10 -7 -21 -21 -25 -30 -6 -17 15 -18 347 -18
195 0 356 4 358 8 5 12 95 62 112 62 9 0 16 4 16 8 0 4 13 15 29 25 29 17 76
22 105 11 22 -9 20 -50 -4 -74 -11 -11 -20 -24 -20 -30 0 -15 697 -14 706 1 3
6 32 23 63 38 31 14 71 37 88 49 39 28 108 30 121 5 10 -20 5 -43 -13 -58 -7
-5 -15 -18 -18 -27 -6 -17 14 -18 333 -18 187 0 340 4 340 8 0 11 120 75 120
65 0 -4 4 -3 8 3 17 25 60 44 99 44 37 0 43 -3 49 -25 4 -17 1 -32 -10 -44 -9
-10 -16 -22 -16 -28 0 -6 -6 -14 -12 -16 -7 -3 53 -6 135 -6 l147 -1 0 118 c0
88 -4 123 -15 138 -19 25 -19 78 0 94 22 18 22 432 0 470 -19 33 -19 74 0 90
22 18 22 457 0 486 -18 24 -18 64 0 88 11 15 15 49 15 133 l0 113 -135 0
c-107 0 -137 -3 -141 -14 -3 -8 -20 -20 -37 -27 -39 -16 -77 -48 -77 -64 0
-23 -41 -49 -78 -50 -34 -1 -70 -16 -159 -65 -18 -9 -39 -23 -47 -30 -15 -12
-47 -29 -138 -77 -27 -14 -50 -29 -54 -34 -3 -5 -18 -9 -34 -9 -32 0 -80 52
-80 87 0 27 31 53 63 53 33 0 107 45 107 65 0 8 11 22 24 30 19 13 28 14 43 4
16 -10 24 -7 46 13 15 14 27 32 27 40 0 18 50 42 62 30 13 -13 74 9 87 30 11
17 -5 18 -329 18 -224 0 -340 -3 -340 -10 0 -6 -17 -18 -37 -28 -45 -21 -83
-51 -83 -67 0 -23 -41 -49 -75 -48 -20 1 -56 -11 -87 -28 -29 -16 -64 -34 -78
-41 -14 -6 -32 -17 -40 -24 -8 -7 -31 -21 -50 -32 -19 -11 -66 -38 -105 -60
-57 -32 -74 -38 -90 -29 -31 16 -65 60 -65 83 0 28 31 55 61 52 14 -1 39 8 56
20 17 12 36 22 42 22 6 0 11 11 11 23 0 30 35 48 69 35 19 -7 29 -4 48 13 12
13 23 28 23 36 0 19 49 48 61 36 14 -14 74 6 88 29 11 17 -5 18 -335 18 l-346
0 -30 -25 c-16 -14 -35 -25 -41 -25 -18 -1 -57 -36 -57 -53 0 -24 -39 -51 -78
-52 -42 -1 -109 -31 -194 -87 -27 -18 -64 -39 -148 -86 -25 -13 -49 -28 -55
-32 -5 -5 -20 -10 -32 -12 -27 -4 -83 55 -83 88 0 26 32 56 57 53 28 -4 103
39 113 66 9 24 43 49 53 39 22 -22 87 14 87 48 0 21 48 42 65 28 9 -8 15 -8
20 0 3 5 14 10 24 10 10 0 26 9 36 20 18 20 17 20 -336 19 l-354 -1 -24 -24z
m987 -467 c14 -10 16 -57 2 -57 -6 0 -15 -11 -19 -24 -6 -13 -34 -37 -65 -55
-63 -35 -71 -51 -26 -51 l30 0 0 -179 0 -180 43 -8 c34 -7 43 -13 45 -32 2
-15 -3 -28 -12 -33 -9 -5 -16 -15 -16 -22 0 -16 -33 -47 -52 -50 -23 -3 -65
-40 -73 -64 -9 -29 -70 -61 -86 -45 -11 11 -30 3 -104 -45 -11 -6 -31 -17 -45
-24 -14 -7 -32 -17 -40 -24 -14 -11 -33 -22 -150 -87 -19 -10 -39 -23 -44 -28
-6 -5 -21 -9 -35 -9 -29 0 -81 56 -81 88 0 25 34 55 57 50 10 -2 35 6 55 19
21 13 42 23 48 23 5 0 10 11 10 24 0 24 31 44 55 37 28 -9 40 -6 61 14 13 12
24 29 24 37 0 19 48 42 64 29 7 -6 25 -1 51 15 22 13 54 31 70 39 68 33 65 24
65 229 0 102 -3 186 -7 186 -5 0 -15 -4 -23 -10 -8 -5 -19 -5 -25 0 -7 5 -43
-64 -105 -201 l-95 -209 -57 0 -56 0 -43 99 c-35 82 -46 97 -61 93 -25 -6 -88
54 -88 83 0 12 10 32 21 44 l22 23 -22 44 c-32 67 -29 74 28 74 l49 0 18 -49
c15 -43 20 -48 36 -40 10 5 18 18 18 29 0 25 33 42 64 34 29 -7 75 22 76 48 0
22 35 41 59 33 33 -10 160 59 179 98 7 15 23 29 35 32 12 2 31 6 42 8 30 6 88
3 103 -6z m1022 -266 c0 -299 2 -311 51 -311 16 0 19 -7 19 -41 l0 -42 -50 5
c-28 3 -59 13 -70 23 -16 15 -22 15 -35 5 -8 -7 -15 -19 -15 -26 0 -12 -46
-42 -67 -45 -17 -3 -51 -36 -54 -54 -5 -26 -65 -60 -82 -47 -9 8 -29 1 -72
-24 -33 -18 -75 -41 -92 -49 -18 -8 -33 -19 -33 -23 0 -4 -15 -14 -32 -21 -18
-8 -66 -34 -106 -58 -40 -24 -82 -43 -92 -43 -23 0 -79 57 -80 80 0 27 31 61
53 59 33 -4 117 42 117 62 0 20 38 51 52 43 20 -13 49 -12 55 1 3 8 11 15 19
15 8 0 14 9 14 20 0 27 45 56 63 41 10 -8 27 -3 69 22 30 19 62 37 71 40 10 4
17 11 17 16 0 6 -16 1 -36 -11 -27 -16 -59 -23 -119 -26 -102 -5 -150 9 -176
52 -23 37 -25 112 -5 161 18 42 45 51 209 67 80 8 117 16 117 24 0 28 -21 64
-45 80 -23 15 -29 15 -53 3 -15 -7 -34 -19 -43 -27 -9 -7 -26 -14 -38 -15 -11
-1 -23 -7 -25 -14 -3 -7 -31 -26 -63 -43 -83 -43 -125 -68 -137 -80 -18 -18
-50 -10 -83 22 -18 18 -33 41 -33 52 0 28 29 56 58 56 36 0 112 47 112 69 0
19 21 30 98 52 29 9 42 18 42 30 0 22 35 43 62 36 20 -6 57 9 123 48 22 14 51
30 65 37 14 7 40 22 57 34 26 18 49 22 113 23 l80 1 0 -279z m847 248 c11 -20
10 -26 -4 -36 -8 -7 -21 -22 -27 -35 -6 -12 -25 -27 -41 -33 -36 -12 -67 -41
-82 -77 -10 -22 -9 -34 2 -62 11 -25 15 -73 15 -160 0 -68 3 -132 6 -141 6
-14 9 -14 29 -1 29 19 92 10 106 -15 7 -14 5 -23 -11 -39 -11 -11 -20 -26 -20
-33 0 -13 -31 -34 -59 -39 -18 -4 -53 -39 -70 -70 -16 -32 -56 -52 -79 -39
-11 6 -27 2 -54 -15 -21 -13 -44 -24 -52 -24 -8 0 -16 -7 -20 -15 -3 -8 -12
-15 -19 -15 -8 0 -25 -9 -38 -19 -22 -17 -50 -33 -159 -94 -19 -10 -39 -23
-44 -28 -34 -32 -116 26 -116 81 0 28 34 55 61 48 20 -4 109 50 109 67 0 23
40 46 62 34 22 -12 78 25 78 51 0 21 48 44 64 31 7 -6 25 -1 51 15 22 13 55
30 73 38 17 8 32 20 32 25 0 6 -24 -1 -52 -14 -71 -33 -196 -35 -246 -5 -44
27 -66 81 -58 139 12 91 37 104 224 123 108 12 112 13 112 36 0 75 -79 101
-138 45 -12 -12 -21 -15 -39 -12 -3 0 -10 -6 -15 -14 -7 -13 -41 -34 -193
-118 -30 -16 -30 -17 -33 -113 l-3 -96 -44 0 -45 0 0 230 0 230 45 0 45 0 0
-60 0 -60 40 20 c22 11 40 27 40 34 0 25 26 42 83 55 45 10 56 16 59 34 3 24
58 51 65 31 4 -11 34 2 118 52 22 13 54 31 70 39 17 8 41 23 55 34 36 29 101
24 117 -10z m-643 5 c19 -18 21 -75 4 -92 -7 -7 -28 -12 -48 -12 -20 0 -41 5
-48 12 -19 19 -15 85 6 97 26 15 69 13 86 -5z m-1094 -119 l0 -55 96 0 95 0
-3 -37 -3 -38 -92 4 -93 3 1 -118 c0 -139 12 -183 54 -203 26 -12 35 -12 76 2
62 22 65 22 80 -14 11 -28 10 -33 -6 -45 -27 -20 -76 -27 -151 -22 -57 3 -68
8 -97 36 l-32 32 -5 163 -5 162 -37 3 c-32 3 -38 7 -38 25 0 14 11 29 29 40
16 9 43 39 61 67 20 31 39 50 51 50 16 0 19 -8 19 -55z"/>
<path d="M2460 1200 c-8 -5 -12 -11 -9 -14 3 -3 14 1 25 9 21 16 8 20 -16 5z"/>
<path d="M2320 1135 c0 -13 -3 -15 -13 -7 -16 13 -57 -11 -57 -33 0 -22 29
-45 48 -38 14 5 15 3 5 -8 -21 -21 -15 -29 12 -17 25 11 34 41 15 53 -19 12
-11 26 9 16 13 -7 24 -6 37 4 19 14 19 14 0 15 -11 0 -28 7 -38 17 -17 15 -18
15 -18 -2z"/>
<path d="M2192 1078 c-19 -19 -15 -41 4 -30 9 5 25 7 35 5 11 -3 19 -1 19 4 0
12 -22 33 -35 33 -6 0 -16 -5 -23 -12z"/>
<path d="M2120 1070 c0 -7 10 -28 21 -47 16 -25 24 -31 30 -22 5 8 1 25 -11
44 -20 32 -40 44 -40 25z"/>
<path d="M2085 1016 c-17 -12 -18 -18 -7 -40 14 -30 32 -33 55 -8 15 16 15 20
1 40 -18 26 -24 27 -49 8z m30 -26 c3 -5 1 -10 -4 -10 -6 0 -11 5 -11 10 0 6
2 10 4 10 3 0 8 -4 11 -10z"/>
<path d="M1988 994 c0 -5 -1 -16 -2 -24 -1 -8 -11 -19 -24 -25 -12 -5 -20 -14
-18 -20 18 -44 19 -48 8 -41 -8 5 -10 2 -5 -9 4 -12 8 -13 13 -5 4 6 11 11 16
11 5 -1 9 12 9 29 1 38 11 47 25 21 13 -25 42 -27 60 -6 17 20 -14 70 -37 61
-9 -4 -22 -1 -29 5 -8 6 -15 8 -16 3z m57 -44 c3 -5 1 -10 -4 -10 -6 0 -11 5
-11 10 0 6 2 10 4 10 3 0 8 -4 11 -10z"/>
<path d="M2097 915 c-4 -8 -33 -28 -67 -45 -33 -17 -60 -34 -60 -38 0 -12 55
-142 60 -142 3 0 28 54 56 120 44 102 49 120 34 120 -10 0 -20 -7 -23 -15z"/>
<path d="M1810 872 c0 -21 46 -69 56 -59 4 3 -1 22 -10 42 -18 37 -46 48 -46
17z"/>
<path d="M2430 650 c0 -5 5 -10 10 -10 6 0 10 5 10 10 0 6 -4 10 -10 10 -5 0
-10 -4 -10 -10z"/>
<path d="M2449 630 c-13 -10 -19 -19 -13 -20 7 0 22 9 35 20 13 10 19 19 13
20 -7 0 -22 -9 -35 -20z"/>
<path d="M2434 596 c-10 -8 -16 -17 -13 -20 3 -3 14 1 25 8 10 8 16 17 13 20
-3 3 -14 -1 -25 -8z"/>
<path d="M2323 583 c-7 -18 4 -42 22 -49 19 -8 45 13 45 36 0 22 -59 34 -67
13z"/>
<path d="M2260 555 c-20 -24 3 -69 31 -62 17 5 18 3 8 -9 -17 -20 -5 -28 20
-12 26 16 26 27 4 67 -20 34 -43 40 -63 16z m35 -25 c3 -5 1 -10 -4 -10 -6 0
-11 5 -11 10 0 6 2 10 4 10 3 0 8 -4 11 -10z"/>
<path d="M2190 515 c-26 -31 13 -82 44 -56 19 16 21 42 4 59 -16 16 -33 15
-48 -3z m35 -25 c3 -5 1 -10 -4 -10 -6 0 -11 5 -11 10 0 6 2 10 4 10 3 0 8 -4
11 -10z"/>
<path d="M2125 510 c-9 -14 33 -80 51 -80 19 0 18 4 -12 50 -29 44 -30 45 -39
30z"/>
<path d="M2073 444 c-8 -21 9 -48 32 -53 26 -5 47 26 34 50 -12 23 -57 25 -66
3z m42 -14 c3 -5 1 -10 -4 -10 -6 0 -11 5 -11 10 0 6 2 10 4 10 3 0 8 -4 11
-10z"/>
<path d="M1985 431 c-3 -6 -2 -19 4 -28 7 -15 5 -18 -16 -19 -35 -3 -39 -11
-21 -42 24 -39 42 -41 33 -3 -5 24 -3 31 9 31 8 0 19 -7 24 -16 13 -24 52 -1
52 30 0 27 -24 51 -40 41 -6 -4 -17 -2 -25 5 -9 7 -15 8 -20 1z"/>
<path d="M1906 352 c-2 -4 -1 -14 5 -22 16 -26 10 -35 -7 -11 -24 33 -43 11
-20 -24 16 -24 18 -25 46 -10 35 18 36 22 11 53 -21 24 -27 26 -35 14z"/>
<path d="M1814 315 c-8 -21 28 -65 50 -62 27 3 31 23 6 30 -12 3 -18 11 -14
20 3 9 -3 16 -16 20 -13 3 -23 0 -26 -8z"/>
<path d="M3358 1209 c-28 -16 -21 -30 7 -17 14 6 25 15 25 20 0 11 -11 10 -32
-3z"/>
<path d="M3388 1194 c-16 -8 -28 -19 -28 -25 0 -8 53 17 79 38 13 10 -28 0
-51 -13z"/>
<path d="M3270 1155 c-6 -8 -9 -23 -5 -34 14 -46 73 -25 61 22 -7 30 -36 36
-56 12z m34 -20 c3 -8 1 -15 -4 -15 -6 0 -10 7 -10 15 0 8 2 15 4 15 2 0 6 -7
10 -15z"/>
<path d="M3374 1155 c-17 -13 -17 -14 -2 -15 9 0 20 5 23 11 11 17 0 20 -21 4z"/>
<path d="M3426 1148 c-4 -15 -26 -32 -59 -48 -31 -16 -53 -34 -56 -45 -2 -11
-8 -23 -13 -26 -6 -4 -5 -15 3 -30 9 -16 16 -74 19 -171 3 -80 9 -150 13 -154
4 -5 17 -3 27 4 11 6 32 9 50 6 l30 -6 0 246 c0 135 -2 246 -4 246 -2 0 -7
-10 -10 -22z"/>
<path d="M3212 1124 c-12 -8 -22 -20 -22 -26 0 -20 31 -47 48 -41 10 4 13 2 8
-5 -5 -8 0 -12 13 -12 27 0 27 25 1 68 -23 37 -20 36 -48 16z m28 -34 c0 -5
-2 -10 -4 -10 -3 0 -8 5 -11 10 -3 6 -1 10 4 10 6 0 11 -4 11 -10z"/>
<path d="M3130 1075 c-11 -13 -8 -15 13 -15 14 0 33 -3 42 -6 15 -6 15 -4 4
15 -16 25 -41 27 -59 6z"/>
<path d="M3065 1070 c-3 -5 1 -10 9 -10 9 0 16 5 16 10 0 6 -4 10 -9 10 -6 0
-13 -4 -16 -10z"/>
<path d="M2920 981 c0 -6 5 -13 10 -16 6 -3 10 1 10 9 0 9 -4 16 -10 16 -5 0
-10 -4 -10 -9z"/>
<path d="M3017 966 c-21 -6 -34 -16 -30 -20 5 -5 -1 -6 -12 -2 -34 13 -49 13
-70 2 -11 -6 -21 -12 -23 -12 -2 -1 5 -15 15 -32 14 -22 23 -28 33 -22 11 7
11 12 2 23 -10 11 -9 17 2 26 11 9 15 8 20 -4 9 -23 49 -15 61 12 6 14 16 21
25 18 9 -3 25 2 36 10 19 14 19 14 -1 14 -11 -1 -37 -6 -58 -13z"/>
<path d="M2854 893 c6 -25 5 -26 -7 -10 -14 17 -37 23 -37 9 0 -15 31 -52 44
-52 7 0 20 6 30 13 18 13 18 15 1 40 -23 35 -39 35 -31 0z"/>
<path d="M2757 883 c-14 -24 33 -79 58 -69 21 8 19 23 -6 29 -13 4 -18 10 -14
17 4 7 1 16 -6 21 -17 11 -27 11 -32 2z"/>
<path d="M3060 787 c-46 -10 -56 -16 -64 -40 -8 -21 -7 -35 5 -55 29 -52 122
-52 200 1 28 19 35 30 37 65 l3 42 -63 -1 c-35 0 -88 -6 -118 -12z"/>
<path d="M3384 632 c2 -19 -3 -39 -11 -48 -8 -7 -10 -14 -5 -14 15 0 34 28 27
40 -3 5 -2 10 2 10 5 0 18 7 29 16 18 15 18 15 -8 10 -16 -4 -28 -1 -31 7 -3
6 -4 -3 -3 -21z"/>
<path d="M3260 577 c0 -7 6 -22 14 -33 12 -15 18 -17 33 -8 24 15 29 44 8 44
-9 0 -13 -4 -10 -10 3 -5 2 -10 -3 -10 -6 0 -12 7 -16 15 -7 18 -26 20 -26 2z"/>
<path d="M3205 556 c-18 -13 -18 -17 -5 -41 11 -21 19 -25 40 -20 21 4 22 4 7
-5 -24 -15 -11 -33 14 -20 23 13 24 31 4 70 -17 33 -32 37 -60 16z"/>
<path d="M3135 516 c-17 -12 -18 -17 -7 -41 17 -37 -4 -29 -26 10 -9 17 -18
32 -20 34 -1 3 -7 0 -13 -6 -9 -9 -6 -21 11 -47 25 -41 26 -41 67 -21 49 25
59 42 38 65 -21 24 -25 24 -50 6z m30 -26 c3 -5 1 -10 -4 -10 -6 0 -11 5 -11
10 0 6 2 10 4 10 3 0 8 -4 11 -10z"/>
<path d="M3016 444 c-8 -22 11 -54 33 -54 29 0 45 25 31 49 -13 25 -55 28 -64
5z m39 -14 c3 -5 1 -10 -4 -10 -6 0 -11 5 -11 10 0 6 2 10 4 10 3 0 8 -4 11
-10z"/>
<path d="M2925 430 c-4 -6 -1 -18 6 -26 7 -8 8 -14 3 -12 -5 1 -19 -3 -32 -10
-21 -12 -21 -14 -7 -42 9 -17 19 -30 24 -30 15 0 20 13 11 30 -7 13 -5 21 4
29 11 10 16 8 21 -8 8 -26 16 -26 46 -2 22 18 22 19 6 44 -11 17 -23 24 -32
21 -8 -4 -22 -1 -29 5 -10 9 -16 9 -21 1z m65 -51 c0 -6 -4 -7 -10 -4 -5 3
-10 11 -10 16 0 6 5 7 10 4 6 -3 10 -11 10 -16z"/>
<path d="M2831 341 c-23 -17 -23 -19 -6 -44 20 -32 23 -32 54 -8 23 17 23 19
6 44 -20 32 -23 32 -54 8z m29 -22 c0 -6 -4 -7 -10 -4 -5 3 -10 11 -10 16 0 6
5 7 10 4 6 -3 10 -11 10 -16z"/>
<path d="M2757 311 c-6 -24 35 -66 57 -58 21 8 20 27 0 27 -10 0 -14 6 -10 15
3 8 -3 19 -14 25 -25 13 -27 13 -33 -9z"/>
<path d="M4274 1206 c-17 -13 -17 -16 -4 -30 13 -14 18 -13 48 5 17 12 32 25
32 30 0 5 -15 0 -32 -11 -42 -26 -57 -26 -27 0 27 22 13 27 -17 6z"/>
<path d="M4192 1158 c-16 -16 -15 -33 4 -52 19 -20 54 -5 54 22 0 20 -18 42
-35 42 -6 0 -16 -5 -23 -12z"/>
<path d="M4294 1155 c-17 -13 -17 -14 -2 -15 9 0 20 5 23 11 11 17 0 20 -21 4z"/>
<path d="M4132 1125 c-12 -9 -22 -22 -22 -30 0 -21 29 -45 47 -38 10 4 14 2 9
-5 -10 -17 10 -24 24 -7 13 16 8 40 -18 73 -16 21 -19 21 -40 7z m22 -31 c3
-8 2 -12 -4 -9 -6 3 -10 10 -10 16 0 14 7 11 14 -7z"/>
<path d="M4051 1076 c-9 -11 -5 -15 24 -18 27 -3 34 -1 30 10 -3 7 -5 16 -5
18 0 10 -39 3 -49 -10z"/>
<path d="M3980 1070 c0 -5 7 -10 16 -10 8 0 12 5 9 10 -3 6 -10 10 -16 10 -5
0 -9 -4 -9 -10z"/>
<path d="M3845 978 c4 -23 1 -29 -20 -34 -29 -7 -29 -7 -10 -45 18 -34 38 -30
29 6 -7 28 9 40 26 20 17 -21 47 -19 59 4 11 20 5 31 -16 31 -8 0 -11 -5 -7
-11 4 -8 -1 -9 -17 -4 -13 4 -24 8 -25 9 0 0 -6 12 -12 26 l-12 25 5 -27z"/>
<path d="M3951 971 c-9 -6 -10 -11 -2 -15 14 -9 51 2 51 15 0 11 -30 12 -49 0z"/>
<path d="M3775 893 c6 -27 6 -27 -14 -9 -26 24 -40 13 -22 -17 10 -15 10 -22
2 -25 -6 -2 -11 -11 -11 -20 1 -15 2 -15 14 1 7 9 20 17 28 17 8 0 22 6 32 13
18 13 18 15 1 40 -23 35 -39 35 -30 0z"/>
<path d="M3988 790 c-57 -10 -67 -16 -77 -43 -12 -33 7 -74 40 -88 37 -15 114
0 166 32 29 18 33 26 33 65 l0 44 -57 -1 c-32 -1 -79 -5 -105 -9z"/>
<path d="M4297 648 c12 -20 10 -41 -7 -62 -14 -18 -14 -18 8 -7 15 8 21 18 18
28 -4 9 1 17 14 20 11 3 20 10 20 15 0 5 -9 6 -20 3 -11 -4 -20 -2 -20 4 0 6
-5 11 -11 11 -6 0 -7 -5 -2 -12z"/>
<path d="M4180 571 c0 -28 28 -47 48 -34 23 14 28 43 7 43 -9 0 -13 -4 -10
-10 3 -5 2 -10 -3 -10 -6 0 -12 7 -16 15 -8 21 -26 19 -26 -4z"/>
<path d="M4122 558 c-27 -27 0 -77 34 -64 14 5 15 4 4 -9 -17 -20 -11 -25 18
-14 27 10 28 27 5 68 -19 32 -41 39 -61 19z m33 -28 c3 -5 1 -10 -4 -10 -6 0
-11 5 -11 10 0 6 2 10 4 10 3 0 8 -4 11 -10z"/>
<path d="M4055 516 c-17 -12 -18 -17 -7 -41 14 -29 38 -31 56 -2 8 12 8 22 0
34 -15 23 -27 26 -49 9z m30 -26 c3 -5 1 -10 -4 -10 -6 0 -11 5 -11 10 0 6 2
10 4 10 3 0 8 -4 11 -10z"/>
<path d="M3986 511 c-10 -15 26 -75 47 -79 21 -4 22 12 2 35 -8 10 -21 27 -28
37 -10 13 -16 16 -21 7z"/>
<path d="M3941 446 c-15 -18 2 -56 24 -56 26 0 46 29 35 51 -13 22 -43 25 -59
5z m34 -16 c3 -5 1 -10 -4 -10 -6 0 -11 5 -11 10 0 6 2 10 4 10 3 0 8 -4 11
-10z"/>
<path d="M3845 430 c-7 -11 33 -90 46 -90 4 0 17 8 29 18 19 16 21 22 11 40
-11 20 -23 27 -45 23 -4 -1 -14 3 -21 9 -9 8 -15 8 -20 0z m60 -40 c3 -5 1
-10 -4 -10 -6 0 -11 5 -11 10 0 6 2 10 4 10 3 0 8 -4 11 -10z"/>
<path d="M3818 383 c-22 -5 -22 -6 -2 -44 8 -17 18 -28 22 -24 9 9 12 75 4 74
-4 -1 -15 -3 -24 -6z"/>
<path d="M3765 351 c-3 -5 -1 -12 5 -16 5 -3 10 -14 10 -23 0 -14 -4 -12 -19
7 -24 31 -39 10 -17 -24 19 -29 20 -30 51 -9 23 15 24 17 9 45 -15 30 -28 36
-39 20z"/>
<path d="M3679 327 c-14 -30 27 -85 55 -74 22 9 20 24 -4 30 -13 3 -18 11 -14
20 3 9 -3 16 -15 20 -12 3 -21 4 -22 4z"/>
<path d="M2322 1709 c4 -31 32 -46 52 -30 9 8 16 22 16 32 0 15 -7 19 -36 19
-31 0 -35 -3 -32 -21z m38 1 c0 -5 -2 -10 -4 -10 -3 0 -8 5 -11 10 -3 6 -1 10
4 10 6 0 11 -4 11 -10z"/>
<path d="M2420 1720 c0 -5 7 -7 15 -4 8 4 15 8 15 10 0 2 -7 4 -15 4 -8 0 -15
-4 -15 -10z"/>
<path d="M3262 1709 c4 -31 32 -46 52 -30 9 8 16 22 16 32 0 15 -7 19 -36 19
-31 0 -35 -3 -32 -21z m43 1 c3 -5 1 -10 -4 -10 -6 0 -11 5 -11 10 0 6 2 10 4
10 3 0 8 -4 11 -10z"/>
<path d="M3360 1720 c0 -5 7 -7 15 -4 8 4 15 8 15 10 0 2 -7 4 -15 4 -8 0 -15
-4 -15 -10z"/>
<path d="M4182 1709 c4 -31 32 -46 52 -30 9 8 16 22 16 32 0 15 -7 19 -36 19
-31 0 -35 -3 -32 -21z"/>
<path d="M4288 1723 c7 -3 16 -2 19 1 4 3 -2 6 -13 5 -11 0 -14 -3 -6 -6z"/>
<path d="M378 1699 c-35 -20 -9 -79 28 -65 14 5 15 4 4 -9 -17 -21 -7 -29 19
-15 26 13 26 29 4 69 -19 33 -28 36 -55 20z m27 -29 c3 -5 1 -10 -4 -10 -6 0
-11 5 -11 10 0 6 2 10 4 10 3 0 8 -4 11 -10z"/>
<path d="M1318 1694 c-13 -13 -14 -21 -5 -41 9 -19 16 -23 36 -18 24 5 25 4 8
-9 -25 -19 -5 -29 21 -10 l22 15 -20 40 c-22 42 -37 48 -62 23z m32 -24 c0 -5
-2 -10 -4 -10 -3 0 -8 5 -11 10 -3 6 -1 10 4 10 6 0 11 -4 11 -10z"/>
<path d="M2260 1695 c-20 -24 3 -69 31 -62 17 5 18 3 8 -9 -16 -20 -5 -28 20
-14 25 13 26 19 4 65 -18 37 -42 45 -63 20z m35 -25 c3 -5 1 -10 -4 -10 -6 0
-11 5 -11 10 0 6 2 10 4 10 3 0 8 -4 11 -10z"/>
<path d="M3206 1694 c-19 -18 -19 -20 -5 -46 8 -15 17 -18 37 -14 26 6 26 6 8
-9 -25 -19 -15 -30 13 -15 25 13 27 33 4 71 -20 33 -34 36 -57 13z m34 -24 c0
-5 -4 -10 -10 -10 -5 0 -10 5 -10 10 0 6 5 10 10 10 6 0 10 -4 10 -10z"/>
<path d="M4128 1699 c-35 -20 -9 -79 28 -65 14 5 15 4 4 -9 -17 -21 -7 -29 19
-15 26 13 26 29 4 69 -19 33 -28 36 -55 20z m27 -29 c3 -5 1 -10 -4 -10 -6 0
-11 5 -11 10 0 6 2 10 4 10 3 0 8 -4 11 -10z"/>
<path d="M308 1659 c-35 -20 -8 -77 30 -65 24 8 30 44 10 64 -14 14 -18 14
-40 1z m27 -29 c3 -5 1 -10 -4 -10 -6 0 -11 5 -11 10 0 6 2 10 4 10 3 0 8 -4
11 -10z"/>
<path d="M1250 1655 c-17 -20 -4 -65 18 -65 38 0 53 37 26 64 -19 20 -28 20
-44 1z m30 -25 c0 -5 -2 -10 -4 -10 -3 0 -8 5 -11 10 -3 6 -1 10 4 10 6 0 11
-4 11 -10z"/>
<path d="M2198 1659 c-22 -12 -23 -42 -2 -60 31 -26 70 25 44 56 -14 17 -19
18 -42 4z m27 -29 c3 -5 1 -10 -4 -10 -6 0 -11 5 -11 10 0 6 2 10 4 10 3 0 8
-4 11 -10z"/>
<path d="M3136 1654 c-19 -18 -19 -20 -6 -45 19 -35 -7 -20 -30 17 -16 24 -26
32 -33 25 -7 -7 -2 -23 17 -51 25 -38 29 -40 44 -27 9 8 27 18 39 21 28 9 35
29 17 55 -18 25 -27 26 -48 5z m29 -24 c3 -5 1 -10 -4 -10 -6 0 -11 5 -11 10
0 6 2 10 4 10 3 0 8 -4 11 -10z"/>
<path d="M4058 1659 c-35 -20 -8 -77 30 -65 24 8 30 44 10 64 -14 14 -18 14
-40 1z m27 -29 c3 -5 1 -10 -4 -10 -6 0 -11 5 -11 10 0 6 2 10 4 10 3 0 8 -4
11 -10z"/>
<path d="M235 1650 c-7 -11 17 -61 38 -79 28 -23 28 7 1 49 -29 44 -30 44 -39
30z"/>
<path d="M1182 1652 c-17 -11 34 -93 53 -85 17 6 20 20 6 25 -5 2 -17 17 -28
35 -11 19 -24 29 -31 25z"/>
<path d="M2126 1651 c-7 -11 20 -72 38 -83 25 -16 26 12 1 48 -33 48 -32 47
-39 35z"/>
<path d="M3985 1650 c-7 -11 17 -61 38 -79 28 -23 28 7 1 49 -29 44 -30 44
-39 30z"/>
<path d="M185 1580 c-8 -27 12 -52 39 -48 16 2 21 10 21 33 0 25 -4 31 -27 33
-19 2 -28 -2 -33 -18z m40 -10 c3 -5 1 -10 -4 -10 -6 0 -11 5 -11 10 0 6 2 10
4 10 3 0 8 -4 11 -10z"/>
<path d="M1135 1590 c-12 -20 4 -60 24 -60 28 0 47 28 34 48 -12 20 -48 28
-58 12z"/>
<path d="M2083 1593 c-16 -6 -17 -35 -1 -51 30 -30 77 4 57 41 -10 17 -31 21
-56 10z m32 -23 c3 -5 1 -10 -4 -10 -6 0 -11 5 -11 10 0 6 2 10 4 10 3 0 8 -4
11 -10z"/>
<path d="M3021 1586 c-16 -19 2 -56 28 -56 28 0 47 28 34 48 -13 22 -47 27
-62 8z m34 -16 c3 -5 1 -10 -4 -10 -6 0 -11 5 -11 10 0 6 2 10 4 10 3 0 8 -4
11 -10z"/>
<path d="M3935 1580 c-8 -27 12 -52 39 -48 16 2 21 10 21 33 0 25 -4 31 -27
33 -19 2 -28 -2 -33 -18z m40 -10 c3 -5 1 -10 -4 -10 -6 0 -11 5 -11 10 0 6 2
10 4 10 3 0 8 -4 11 -10z"/>
<path d="M96 1572 c-4 -6 -2 -21 5 -33 7 -14 7 -19 0 -15 -6 4 -20 2 -31 -4
-19 -10 -19 -13 -5 -40 19 -37 40 -40 31 -6 -8 31 13 45 30 21 12 -17 15 -17
39 -1 14 9 25 20 25 24 0 19 -28 44 -46 40 -10 -2 -24 3 -30 11 -8 10 -13 11
-18 3z m59 -42 c3 -5 1 -10 -4 -10 -6 0 -11 5 -11 10 0 6 2 10 4 10 3 0 8 -4
11 -10z"/>
<path d="M1986 1569 c-7 -16 29 -89 43 -89 3 0 16 7 28 15 19 13 21 19 11 40
-8 18 -19 25 -39 25 -15 0 -29 6 -32 13 -3 8 -7 7 -11 -4z"/>
<path d="M3846 1572 c-4 -6 -2 -21 5 -33 7 -14 7 -19 0 -15 -6 4 -20 2 -31 -4
-19 -10 -19 -13 -5 -40 19 -37 40 -40 31 -6 -8 31 13 45 30 21 12 -17 15 -17
39 -1 14 9 25 20 25 24 0 19 -28 44 -46 40 -10 -2 -24 3 -30 11 -8 10 -13 11
-18 3z m59 -42 c3 -5 1 -10 -4 -10 -6 0 -11 5 -11 10 0 6 2 10 4 10 3 0 8 -4
11 -10z"/>
<path d="M1030 1565 c0 -9 50 -85 56 -85 35 0 57 47 32 67 -15 12 -88 27 -88
18z m70 -46 c0 -6 -4 -7 -10 -4 -5 3 -10 11 -10 16 0 6 5 7 10 4 6 -3 10 -11
10 -16z"/>
<path d="M2920 1565 c0 -16 46 -85 57 -85 13 0 43 27 43 39 0 19 -28 39 -62
45 -21 4 -38 4 -38 1z m70 -46 c0 -6 -4 -7 -10 -4 -5 3 -10 11 -10 16 0 6 5 7
10 4 6 -3 10 -11 10 -16z"/>
<path d="M1018 1523 c-32 -8 -15 -63 19 -63 10 0 11 5 4 18 -7 13 -7 22 0 29
13 13 0 21 -23 16z"/>
<path d="M1956 1517 c-18 -13 -18 -15 -1 -40 9 -15 21 -27 26 -27 13 0 20 18
9 25 -5 3 -7 17 -4 31 7 27 -3 31 -30 11z"/>
<path d="M2898 1519 c-17 -9 -17 -12 -3 -39 9 -17 19 -30 24 -30 15 0 20 13
11 31 -7 12 -7 20 0 24 11 7 4 25 -8 25 -4 0 -15 -5 -24 -11z"/>
<path d="M16 1492 c-2 -4 -1 -14 5 -22 14 -24 10 -37 -6 -16 -14 19 -15 19
-15 -6 0 -36 14 -42 45 -22 24 16 24 17 8 45 -18 29 -28 35 -37 21z"/>
<path d="M965 1490 c-8 -13 3 -30 21 -30 18 0 18 14 0 29 -10 8 -16 9 -21 1z"/>
<path d="M1907 1494 c-3 -4 -2 -15 4 -26 6 -11 8 -22 6 -25 -3 -2 -10 5 -17
16 -6 12 -15 21 -20 21 -16 0 -11 -26 8 -50 18 -22 19 -22 45 -5 25 16 26 18
11 46 -14 29 -25 35 -37 23z"/>
<path d="M2857 1494 c-4 -4 -4 -19 -1 -33 5 -24 4 -24 -7 -6 -17 28 -16 28
-28 20 -8 -4 -6 -16 4 -36 9 -16 18 -29 21 -29 9 0 54 32 54 39 -1 14 -36 51
-43 45z"/>
<path d="M3767 1494 c-3 -4 -2 -15 4 -26 6 -11 8 -22 6 -25 -3 -2 -10 5 -17
16 -6 12 -15 19 -21 16 -13 -9 -11 -20 9 -45 18 -22 19 -22 45 -5 26 17 27 18
10 46 -18 29 -25 34 -36 23z"/>
<path d="M925 1470 c-3 -5 1 -10 9 -10 9 0 16 5 16 10 0 6 -4 10 -9 10 -6 0
-13 -4 -16 -10z"/>
<path d="M1816 1462 c-12 -11 -5 -32 19 -58 21 -22 27 -25 40 -14 19 16 19 34
0 26 -14 -5 -19 4 -16 30 1 12 -34 26 -43 16z"/>
<path d="M2756 1463 c-7 -8 5 -36 27 -60 15 -17 23 -20 34 -12 18 16 16 26 -7
32 -13 3 -18 11 -14 20 5 14 -29 31 -40 20z"/>
<path d="M3677 1462 c-11 -24 25 -75 49 -70 25 5 28 25 4 31 -12 3 -18 11 -14
20 5 14 -32 32 -39 19z"/>
<path d="M4612 1445 c0 -16 2 -22 5 -12 2 9 2 23 0 30 -3 6 -5 -1 -5 -18z"/>
<path d="M750 1361 c-103 -33 -211 -98 -188 -113 7 -4 20 -5 30 -2 9 3 22 -3
30 -14 25 -36 124 -72 129 -47 3 15 -43 35 -67 29 -37 -9 -36 14 0 26 19 6 37
17 40 25 6 16 41 20 50 7 3 -5 43 -12 88 -15 46 -3 96 -11 112 -17 38 -14 47
-3 18 21 -17 13 -38 18 -73 17 -49 -1 -69 6 -56 18 3 4 34 7 69 7 131 1 184
-68 122 -158 -30 -45 -67 -135 -59 -144 3 -3 9 -1 13 5 4 6 15 13 24 17 10 3
20 19 23 34 3 15 14 46 24 68 10 22 23 52 29 67 21 51 102 47 122 -7 6 -15 15
-23 23 -19 9 3 16 -3 20 -15 5 -19 6 -19 41 -3 19 9 35 20 36 23 0 4 -28 33
-63 65 -69 65 -162 116 -249 134 -48 11 -62 11 -96 -3 -35 -14 -42 -14 -52 -2
-16 20 -72 18 -140 -4z"/>
<path d="M524 1206 c-17 -13 -17 -16 -4 -30 13 -14 18 -13 48 5 17 12 32 25
32 30 0 5 -15 0 -32 -11 -42 -26 -57 -26 -27 0 27 22 13 27 -17 6z"/>
<path d="M789 1201 c14 -25 75 -54 80 -38 2 7 13 22 24 35 l20 22 -67 0 c-62
0 -66 -1 -57 -19z"/>
<path d="M933 1203 c4 -3 -2 -12 -13 -20 -20 -14 -25 -38 -14 -67 9 -25 20
-19 38 19 13 26 14 40 6 55 -6 11 -14 20 -17 20 -3 0 -3 -3 0 -7z"/>
<path d="M1150 1176 c0 -8 14 -19 30 -25 35 -12 40 1 8 23 -28 20 -38 20 -38
2z"/>
<path d="M597 1151 c-15 -29 -14 -30 3 -21 10 6 29 10 42 10 21 0 21 -2 -11
-30 -21 -19 -31 -36 -27 -46 3 -9 6 -21 6 -27 1 -7 7 5 15 27 19 54 25 57 97
63 51 4 66 2 77 -11 19 -22 7 -32 -23 -18 -35 16 -96 -2 -96 -28 0 -13 7 -20
19 -20 33 0 34 -20 2 -31 -36 -13 -38 -20 -13 -43 18 -15 20 -14 37 24 20 44
55 75 98 85 39 10 36 -17 -3 -32 -31 -12 -67 -74 -55 -93 8 -13 71 -13 96 0
38 21 14 136 -35 162 -11 7 -55 20 -96 29 -41 9 -85 20 -96 24 -17 5 -25 1
-37 -24z"/>
<path d="M452 1150 c-24 -39 -7 -67 31 -48 20 10 22 39 5 56 -16 16 -21 15
-36 -8z"/>
<path d="M544 1155 c-17 -13 -17 -14 -2 -15 9 0 20 5 23 11 11 17 0 20 -21 4z"/>
<path d="M1377 1123 c5 -15 3 -16 -8 -5 -7 6 -21 12 -30 12 -32 0 -33 -23 -2
-51 23 -20 28 -30 20 -38 -8 -8 -7 -11 5 -11 26 0 41 26 29 49 -14 25 -14 34
0 25 8 -4 8 0 0 15 -14 25 -23 28 -14 4z"/>
<path d="M1225 1120 c3 -5 10 -10 16 -10 5 0 9 5 9 10 0 6 -7 10 -16 10 -8 0
-12 -4 -9 -10z"/>
<path d="M1138 1109 c-11 -6 -18 -22 -18 -40 0 -18 4 -28 10 -24 6 3 10 14 10
25 0 10 7 20 15 24 8 3 15 10 15 16 0 13 -10 12 -32 -1z"/>
<path d="M412 1086 c-8 -18 -8 -26 -1 -26 8 0 7 -5 -1 -15 -18 -22 -8 -27 18
-9 25 17 28 33 9 58 -12 17 -14 16 -25 -8z"/>
<path d="M504 1086 c-12 -11 -25 -31 -28 -44 -8 -23 -43 -43 -81 -46 -42 -2
-59 -177 -30 -304 21 -92 27 -99 58 -76 17 12 24 26 22 39 -3 11 -6 38 -7 60
-3 36 -1 40 27 46 31 7 28 10 -15 12 -21 2 -25 7 -28 40 -2 21 1 37 7 37 6 0
11 -11 11 -25 0 -14 3 -25 8 -25 11 0 38 20 27 20 -5 0 3 7 20 16 34 18 67 12
96 -17 16 -16 26 -18 47 -11 l27 9 -26 6 c-15 4 -30 14 -33 23 -5 13 -2 15 16
9 51 -16 96 -17 127 -1 17 9 31 20 31 25 0 19 -148 29 -166 11 -17 -17 -69
-28 -87 -18 -18 10 -24 48 -7 48 6 0 10 -4 10 -10 0 -16 26 -11 54 11 32 25
33 37 4 48 -35 13 -77 -7 -102 -48 -32 -51 -55 -69 -66 -52 -5 8 -1 20 11 32
10 10 25 35 33 54 10 23 26 40 47 49 29 12 33 18 35 60 3 51 -8 57 -42 22z"/>
<path d="M230 1069 c0 -7 10 -28 23 -48 20 -33 22 -34 25 -13 2 13 -4 34 -12
48 -17 25 -36 32 -36 13z"/>
<path d="M1242 1038 c3 -7 17 -14 32 -16 19 -2 27 0 24 9 -2 7 -17 14 -32 16
-20 3 -27 0 -24 -9z"/>
<path d="M1413 1031 c-7 -12 -24 -23 -38 -27 -29 -7 -30 -11 -8 -36 14 -16 14
-18 1 -18 -9 0 -33 6 -54 13 -31 11 -45 11 -68 2 -28 -12 -27 -12 29 -18 69
-7 102 -27 121 -74 17 -39 12 -52 -11 -33 -24 20 -19 -13 5 -35 15 -14 20 -29
18 -54 -3 -38 -25 -55 -24 -19 1 29 -33 37 -51 12 -20 -28 -16 -42 17 -49 25
-5 30 -11 30 -36 0 -32 -2 -33 -30 -19 -11 6 -29 15 -40 20 -18 9 -20 7 -20
-21 0 -66 -36 -88 -81 -48 l-24 22 33 -6 c30 -6 32 -5 32 22 0 50 -20 91 -43
90 l-22 0 23 -16 c25 -18 29 -43 7 -43 -8 0 -15 4 -15 9 0 5 -19 16 -42 26
-69 27 -74 55 -9 55 20 0 45 6 56 13 17 13 16 16 -19 42 -35 26 -39 27 -66 14
-15 -8 -52 -36 -80 -63 -39 -37 -49 -51 -38 -57 7 -5 19 -9 26 -9 7 0 37 -22
65 -48 29 -27 63 -56 77 -65 35 -24 91 -21 131 6 19 13 56 32 83 42 68 28 78
48 84 163 4 95 -6 177 -31 235 -12 27 -12 27 -24 8z"/>
<path d="M1200 1030 c0 -5 7 -10 16 -10 8 0 12 5 9 10 -3 6 -10 10 -16 10 -5
0 -9 -4 -9 -10z"/>
<path d="M190 1015 c-10 -12 -10 -21 -2 -40 13 -29 34 -32 57 -9 14 14 14 19
2 38 -18 27 -40 31 -57 11z m35 -25 c3 -5 1 -10 -4 -10 -6 0 -11 5 -11 10 0 6
2 10 4 10 3 0 8 -4 11 -10z"/>
<path d="M94 975 c5 -20 2 -26 -19 -31 -29 -7 -29 -7 -10 -45 18 -34 38 -30
29 6 -7 28 9 40 26 20 17 -21 47 -19 59 3 14 26 -13 65 -39 57 -10 -3 -21 -1
-25 5 -12 20 -27 10 -21 -15z m61 -25 c3 -5 1 -10 -4 -10 -6 0 -11 5 -11 10 0
6 2 10 4 10 3 0 8 -4 11 -10z"/>
<path d="M1029 959 c-15 -16 -23 -29 -20 -29 10 0 55 49 50 54 -2 2 -16 -9
-30 -25z"/>
<path d="M1173 977 c-25 -11 -31 -27 -9 -27 14 0 42 28 35 34 -2 2 -14 -1 -26
-7z"/>
<path d="M270 951 c0 -9 -23 -20 -45 -22 -5 0 -13 -6 -17 -14 -7 -11 -87 -60
-183 -110 -19 -10 -20 -22 -23 -218 -1 -114 0 -207 3 -207 14 0 55 34 55 46 0
22 41 44 62 33 22 -12 78 25 78 51 0 24 48 44 66 29 12 -10 14 21 14 205 0
119 -2 216 -5 216 -3 0 -5 -4 -5 -9z"/>
<path d="M25 893 c5 -23 4 -25 -9 -14 -14 12 -16 10 -16 -13 0 -29 24 -35 54
-13 18 13 18 15 1 40 -22 35 -39 35 -30 0z"/>
<path d="M4612 870 c0 -14 2 -19 5 -12 2 6 2 18 0 25 -3 6 -5 1 -5 -13z"/>
<path d="M1255 861 c-3 -5 -1 -12 5 -16 5 -3 12 -29 16 -57 6 -41 9 -47 15
-31 4 12 12 24 18 28 16 9 13 51 -5 69 -17 18 -40 21 -49 7z"/>
<path d="M795 820 c-16 -11 -52 -27 -79 -36 -39 -13 -46 -18 -32 -26 35 -19
11 -88 -30 -88 -18 0 -24 -4 -21 -13 3 -8 1 -20 -3 -27 -10 -16 40 -93 76
-116 41 -28 58 -12 50 49 -17 128 -18 140 -5 163 7 13 34 38 60 55 31 20 46
35 42 45 -7 19 -22 18 -58 -6z"/>
<path d="M528 748 c-2 -18 -9 -23 -31 -21 -17 1 -27 -3 -27 -12 0 -7 -2 -19
-5 -27 -3 -7 -1 -19 4 -27 8 -12 15 -10 46 7 24 15 45 20 61 16 23 -6 24 -4
18 20 -4 16 -1 32 6 41 10 12 9 15 -6 15 -11 0 -29 3 -41 6 -17 5 -22 1 -25
-18z"/>
<path d="M443 598 c-13 -16 -23 -58 -14 -56 3 1 14 -2 24 -7 39 -17 65 44 28
65 -25 13 -26 13 -38 -2z m32 -28 c3 -5 1 -10 -4 -10 -6 0 -11 5 -11 10 0 6 2
10 4 10 3 0 8 -4 11 -10z"/>
<path d="M1385 590 c-14 -16 -15 -22 -5 -35 15 -18 34 -9 26 12 -3 8 -2 12 3
9 10 -7 23 19 14 28 -10 10 -19 7 -38 -14z"/>
<path d="M538 583 c7 -3 16 -2 19 1 4 3 -2 6 -13 5 -11 0 -14 -3 -6 -6z"/>
<path d="M1010 549 c0 -18 3 -19 15 -9 20 17 48 5 68 -30 24 -41 37 -38 27 6
-10 44 -23 54 -72 54 -32 0 -38 -3 -38 -21z"/>
<path d="M1316 551 c-15 -17 -15 -20 2 -42 19 -22 20 -22 46 -6 25 17 25 19
10 42 -19 30 -35 31 -58 6z m34 -21 c0 -5 -2 -10 -4 -10 -3 0 -8 5 -11 10 -3
6 -1 10 4 10 6 0 11 -4 11 -10z"/>
<path d="M540 536 c0 -2 8 -10 18 -17 15 -13 16 -12 3 4 -13 16 -21 21 -21 13z"/>
<path d="M1261 521 c-19 -12 -21 -48 -5 -62 9 -7 19 -7 33 1 24 12 26 23 11
51 -12 21 -18 23 -39 10z m19 -31 c0 -5 -2 -10 -4 -10 -3 0 -8 5 -11 10 -3 6
-1 10 4 10 6 0 11 -4 11 -10z"/>
<path d="M236 512 c-7 -12 17 -66 34 -77 6 -3 10 4 10 17 -1 29 -34 75 -44 60z"/>
<path d="M494 512 c-28 -19 -21 -41 29 -90 68 -65 137 -108 216 -132 84 -27
101 -26 101 3 0 20 -5 24 -29 25 -35 1 -79 22 -105 51 -11 12 -24 21 -31 21
-6 0 -20 7 -31 15 -14 11 -15 15 -4 14 8 -1 28 -1 44 0 23 1 27 4 18 13 -7 7
-30 11 -52 10 -46 -3 -90 17 -118 53 -22 28 -22 28 -38 17z"/>
<path d="M1176 512 c-2 -4 -1 -14 5 -22 14 -23 11 -30 -13 -31 -17 -1 -18 -3
-6 -6 9 -2 26 1 37 7 18 9 19 14 9 35 -11 25 -23 31 -32 17z"/>
<path d="M191 446 c-15 -18 2 -56 24 -56 26 0 46 29 35 51 -13 22 -43 25 -59
5z m34 -16 c3 -5 1 -10 -4 -10 -6 0 -11 5 -11 10 0 6 2 10 4 10 3 0 8 -4 11
-10z"/>
<path d="M990 433 c0 -18 2 -33 4 -33 9 0 13 39 5 51 -6 10 -9 4 -9 -18z"/>
<path d="M1220 445 c-10 -13 -9 -15 9 -15 11 0 21 4 21 9 0 18 -18 21 -30 6z"/>
<path d="M1306 435 c-10 -8 -23 -12 -27 -9 -5 3 -9 1 -9 -4 0 -6 -13 -15 -30
-21 -16 -5 -30 -14 -30 -20 0 -5 -13 -12 -30 -16 -16 -4 -30 -11 -30 -16 0 -5
-23 -20 -51 -35 -64 -32 -58 -41 10 -15 67 25 126 61 181 110 44 39 53 54 16
26z"/>
<path d="M95 430 c-7 -11 33 -90 46 -90 4 0 17 8 29 18 19 16 21 22 11 40 -11
20 -23 27 -45 23 -4 -1 -14 3 -21 9 -9 8 -15 8 -20 0z m60 -40 c3 -5 1 -10 -4
-10 -6 0 -11 5 -11 10 0 6 2 10 4 10 3 0 8 -4 11 -10z"/>
<path d="M813 405 c-44 -38 -63 -44 -63 -20 0 9 -6 12 -15 9 -12 -5 -13 -10
-4 -20 19 -24 48 -16 92 26 52 49 45 52 -10 5z"/>
<path d="M1078 423 c-10 -3 -18 -8 -18 -13 0 -16 17 -19 35 -6 20 14 10 25
-17 19z"/>
<path d="M1141 404 c6 -8 17 -14 24 -14 7 0 18 6 24 14 10 12 6 14 -24 14 -30
0 -34 -2 -24 -14z"/>
<path d="M1098 375 c-16 -13 -24 -27 -18 -30 14 -9 50 18 50 37 0 22 1 22 -32
-7z"/>
<path d="M68 383 c-22 -5 -22 -6 -2 -44 8 -17 18 -28 22 -24 9 9 12 75 4 74
-4 -1 -15 -3 -24 -6z"/>
<path d="M920 375 c-8 -9 -8 -15 -2 -15 12 0 26 19 19 26 -2 2 -10 -2 -17 -11z"/>
<path d="M1008 379 c-18 -10 -17 -16 18 -68 2 -1 7 0 13 4 8 4 8 12 1 25 -7
13 -7 21 0 25 11 7 4 25 -8 25 -4 0 -15 -5 -24 -11z"/>
<path d="M15 351 c-3 -5 -1 -12 5 -16 5 -3 10 -14 10 -23 -1 -15 -2 -15 -15 2
-14 19 -15 19 -15 -6 0 -35 14 -42 44 -22 24 15 25 17 10 45 -15 30 -28 36
-39 20z"/>
<path d="M966 351 c-4 -6 -2 -18 4 -26 13 -15 0 -21 -14 -7 -4 4 -25 7 -46 8
-45 0 -59 -24 -29 -50 22 -18 69 -22 69 -5 0 6 -7 9 -15 6 -18 -7 -27 6 -19
27 5 13 9 12 25 -8 17 -21 22 -23 44 -13 30 14 31 27 7 58 -13 16 -21 19 -26
10z"/>
<path d="M4612 305 c0 -16 2 -22 5 -12 2 9 2 23 0 30 -3 6 -5 -1 -5 -18z"/>
<path d="M520 75 c-19 -23 -8 -26 20 -5 19 15 21 20 9 20 -9 0 -22 -7 -29 -15z"/>
<path d="M563 73 c-29 -15 -44 -33 -27 -33 12 0 64 34 64 42 0 10 2 10 -37 -9z"/>
<path d="M1464 75 c-15 -11 -16 -14 -3 -15 8 0 24 7 35 15 15 11 16 14 3 15
-8 0 -24 -7 -35 -15z"/>
<path d="M1503 68 c-36 -22 -38 -25 -23 -48 8 -13 12 -13 27 4 17 17 17 18 -6
11 -33 -10 -19 9 19 25 16 7 30 16 30 21 0 13 -11 10 -47 -13z"/>
<path d="M2414 75 c-10 -8 -14 -15 -8 -15 5 0 19 7 30 15 10 8 14 15 8 15 -5
0 -19 -7 -30 -15z"/>
<path d="M2445 65 c-22 -13 -34 -25 -27 -25 18 0 72 32 72 42 0 11 0 11 -45
-17z"/>
<path d="M3355 77 c-18 -14 -14 -37 8 -37 17 0 80 40 74 47 -4 3 -22 -4 -42
-16 -45 -26 -58 -27 -25 -1 28 22 14 28 -15 7z"/>
<path d="M4270 75 c-19 -23 -8 -26 20 -5 19 15 21 20 9 20 -9 0 -22 -7 -29
-15z"/>
<path d="M4313 73 c-29 -15 -44 -33 -27 -33 12 0 64 34 64 42 0 10 2 10 -37
-9z"/>
<path d="M437 34 c-4 -4 -7 -13 -7 -21 0 -17 27 -17 33 0 4 9 6 9 6 0 1 -7 8
-13 17 -13 26 0 11 35 -16 38 -14 2 -29 0 -33 -4z"/>
<path d="M540 25 c-14 -16 -10 -18 14 -9 9 3 16 10 16 15 0 14 -16 11 -30 -6z"/>
<path d="M1382 28 c-16 -16 -15 -28 3 -28 8 0 15 5 15 12 0 9 3 9 12 0 7 -7
18 -12 25 -12 11 0 11 5 3 20 -12 22 -40 26 -58 8z"/>
<path d="M2333 33 c-7 -2 -13 -11 -13 -19 0 -17 26 -19 33 -1 4 10 6 10 6 0 1
-7 8 -13 17 -13 11 0 14 5 10 16 -3 9 -6 18 -6 20 0 5 -32 4 -47 -3z"/>
<path d="M2430 25 c-14 -16 -10 -18 14 -9 9 3 16 10 16 15 0 14 -16 11 -30 -6z"/>
<path d="M3272 28 c-16 -16 -15 -28 3 -28 8 0 15 5 15 11 0 8 5 7 15 -1 18
-15 30 -7 22 15 -7 18 -38 20 -55 3z"/>
<path d="M3370 25 c-14 -16 -10 -18 14 -9 9 3 16 10 16 15 0 14 -16 11 -30 -6z"/>
<path d="M4187 34 c-4 -4 -7 -13 -7 -21 0 -17 27 -17 33 0 4 9 6 9 6 0 1 -7 8
-13 17 -13 26 0 11 35 -16 38 -14 2 -29 0 -33 -4z"/>
<path d="M4290 25 c-14 -16 -10 -18 14 -9 9 3 16 10 16 15 0 14 -16 11 -30 -6z"/>
</g>
</svg>
