<?xml version="1.0" standalone="yes"?>
<svg xmlns="http://www.w3.org/2000/svg" width="641" height="635">
<path style="fill:#010101; stroke:none;" d="M0 0L0 635L542 635L542 634C533.79 630.779 528.835 623.216 522.964 617C510.821 604.14 499.243 590.731 486.961 577.996C481.554 572.39 475.124 561.709 467 560.228C458.185 558.622 447.956 560 439 560L383 560L207 560L143 560C130.244 560 117.884 561.256 107.09 553.099C97.5409 545.881 97 534.897 97 524L97 473L97 320L97 273C97 266.269 98.4688 257.565 96.6821 251.059C94.8611 244.428 81.2594 247 76 247L34 247C27.3586 247 19.1992 248.262 13.0008 245.442C0.980647 239.975 1 229.32 1 218L1 148C1 138.86 -1.4277 125.596 1.84336 117.001C4.76169 109.333 12.2103 104.695 20 103.44C37.5397 100.615 57.2348 103 75 103C79.8261 103 91.3643 105.122 95.2577 101.972C99.7654 98.3251 97 81.4098 97 76C97 54.1692 89.6055 19.0345 111 5.26001C122.023 -1.83728 138.523 1 151 1L243 1L416 1L467 1C474.404 1 483.961 -0.580933 490.999 1.96991C501.233 5.67883 509.581 18.1747 517.08 25.7145C536.593 45.3317 560.028 63.8129 576.62 86.0008C583.218 94.8232 580 111.477 580 122L580 212L580 334C580 352.803 576.994 374.427 580.148 392.941C581.118 398.633 587.836 396.557 592 397.214C597.585 398.095 602.656 402.61 604.347 408C607.347 417.565 605 431.009 605 441L605 513C617.757 513 629.775 511.25 641 518L641 0L0 0z"/>
<path style="fill:#f9f9f9; stroke:none;" d="M117 2L117 3L119 3L119 4L115 5C112.38 2.60522 110.521 5.24304 110 8C104.707 8.22614 101.81 11.7813 102 17L99 17L100 21C95.8154 21.6654 98 36.0997 98 40L98 80C98 87.3741 99.027 95.1358 96 102C113.221 106.548 133.292 104 151 104L255 104C271.098 104 302.24 97.8408 313.786 111.018C319.641 117.701 319 125.704 319 134C319 148.73 316.758 165.485 319.225 180C321.482 193.283 335.681 207.13 342 219L345 219C354.62 200.929 367.767 183.728 379.576 167C383.71 161.143 387.441 151.484 394.039 148.028C400.706 144.536 413.581 147 421 147C443.576 147 471.043 142.772 493 148L417.127 247L397.87 272L391.946 282L397.884 292L415.576 315L482 402C512.536 392.354 548.752 396.932 581 397C575.491 373.862 580 344.796 580 321L580 164L580 114C580 104.725 581.215 94.8207 578 86L577 88L576 88L575 83C572.179 83.1008 571.925 81.6147 572 79L570 77L567 77L568 75L567 74L565 75L564 74L560 67L559 66L555 66L554 64L555 62L554 61L551 62C550.446 58.4581 549.707 57.0884 546 57L547 54L544 55L545 52L542 53L543 50L541 48L538 48C537.4 44.7403 536.299 44.1312 533 44C533.081 41.1427 532.815 40.5461 530 40L529 39L530 37L527 34L524 35L525 32L522 33L523 30L520 31L521 29L519 30L520 27L517 28L515 26L514 21L511 22L510 21L511 18L509 16L506 17L501 8L497 8L498 5L489 3L489 2L491 2L456 2L375 2L200 2L144 2L117 2z"/>
<path style="fill:#6bab8a; stroke:none;" d="M124 1L124 2L488 2L455 1L381 1L124 1M489 2L489 3L492 3L489 2M115 5L119 4L115 5M492 3L495 5L495 4L492 3M113 4L114 5L113 4M111 5L112 6L111 5M496 5L497 6L496 5M497 6L497 8L499 8L497 6M108.667 7.33331L109.333 7.66669L108.667 7.33331M107 8L103 13L107 8M118 8L119 9L118 8M479 8L480 9L479 8M499 8L500 9L499 8M115 9L116 10L115 9M500 9L501 10L500 9M481 10L481 16L482 16L481 10M501 10L502 11L501 10M113.333 11.6667L113.667 12.3333L113.333 11.6667M502 11L503 12L502 11M503 12L506 15L503 12M110 14L111 15L110 14M101.333 15.6667L101.667 16.3333L101.333 15.6667M506 15L506 17L508 17L506 15M100 17L101 18L100 17M481 17L481 77L482 77L482 36L481 17M508 17L509 18L508 17M509 18L510 19L509 18M99.3333 19.6667L99.6667 20.3333L99.3333 19.6667M510 19L513 22L510 19M513 22L514 23L513 22M97 25L97 100L98 100L98 48L97 25M103 25L103 30L104 30L103 25M515.667 25.3333L516.333 25.6667L515.667 25.3333M517.333 26.6667L517.667 27.3333L517.333 26.6667M519.333 28.6667L519.667 29.3333L519.333 28.6667M520.667 30.3333L521.333 30.6667L520.667 30.3333M522 31L522 33L524 33L522 31M524 33L524 35L526 35L524 33M526 35L527 36L526 35M527 36L528 37L527 36M528 37L529 38L528 37M529 38L530 39L529 38M530 39L531 40L530 39M531 40L533 42L531 40M533.667 43.3333L534.333 43.6667L533.667 43.3333M535 44L538 47L535 44M538 47L539 48L538 47M539 48L540 49L539 48M540 49L541 50L540 49M541 50L542 51L541 50M542 51L542 53L544 53L542 51M544 53L544 55L546 55L544 53M546 55L546 57L548 57L546 55M548 57L550 59L548 57M550 59L551 60L550 59M551 60L551 62L553 62L551 60M553 62L554 63L553 62M554 63L555 64L554 63M555.667 65.3333L556.333 65.6667L555.667 65.3333M557 66L558 67L557 66M558 67L559 68L558 67M559 68L560 69L559 68M560 69L561 70L560 69M561 70L562 71L561 70M562 71L564 73L562 71M564 73L565 74L564 73M565 74L566 75L565 74M566 75L567 76L566 75M567 76L568 77L567 76M568 77L569 78L568 77M569 78L570 79L569 78M483 79L483 84L484 84L483 79M570 79L571 80L570 79M571 80L571 82L573 82L571 80M573.333 82.6667L573.667 83.3333L573.333 82.6667M574.667 84.3333L575.333 84.6667L574.667 84.3333M576 85L576 88L577 88L576 85M485 86L486 87L485 86M487 89L490 92L487 89M578 90L578 394L579 394L579 179L579 117L578 90M494 95L495 96L494 95M507 99L507 100L569 100L549 99L507 99M572 101L572 395L573 395L573 187L573 128L572 101M96 102L105 104L105 103L96 102z"/>
<path style="fill:#f9f9f9; stroke:none;" d="M19 103L19 104L96 104L72 103L19 103M14 104L14 105L17 105L14 104z"/>
<path style="fill:#09753b; stroke:none;" d="M178 434L244 434C251.878 434 264.512 436.418 271.826 433.397C279.479 430.236 286.639 415.543 291.525 409C307.855 387.133 329.854 364.388 342 340L359.421 363L392 409L410.184 432.972L431 434L480 434L480 410L481 410L481 484C481 490.838 483.833 505.897 479.972 511.682C473.508 521.37 450.983 506.297 444.859 520.105C440.064 530.915 454.647 542.175 460.576 549C479.514 570.801 499.804 591.617 519.536 612.714C525.014 618.572 533.121 632.31 542 632.496C552.44 632.715 561.931 616.896 568.17 610C583.679 592.858 599.656 576.145 615.17 559C622.511 550.886 632.06 543.342 637.856 534C639.188 531.852 640.067 529.482 640.531 527C643.398 511.669 624.769 514.004 615 514C611.052 513.998 605.637 514.746 604.318 509.941C602.296 502.58 604 492.622 604 485L604 433C604 424.917 606.022 413.557 602.772 406.015C598.243 395.508 584.197 398 575 398L512 398C500.734 398 490.393 396.263 482 405C476.824 392.696 465.599 381.492 457.424 371C442.99 352.474 428.771 333.749 414.626 315C408.823 307.308 402.959 299.662 397.116 292C395.026 289.259 391.039 285.704 391.027 282C391.014 278.001 395.499 273.923 397.79 271C404.258 262.747 410.525 254.336 416.884 246C440.98 214.416 471.156 183.37 491 149L419 149C412.044 149 398.009 146.343 392.209 150.603C387.452 154.098 384.422 161.205 381.116 166C372.694 178.214 364.373 190.549 356.309 203C354.332 206.051 347.167 220.069 343.106 219.369C338.414 218.56 332.49 204.842 330.053 201C326.192 194.912 320.393 188.04 318.558 181C315.208 168.148 318 151.27 318 138C318 127.015 320.456 113.04 308.961 106.724C300.608 102.135 289.017 104.307 280 104.911C267.44 105.751 254.588 105 242 105C187.059 105 132.015 104 77 104L30 104C21.9562 104 13.4565 103.391 7.05478 109.214C-1.38271 116.888 1 129.732 1 140L1 204C1 213.028 -1.20779 225.515 2.13349 234C9.9788 253.922 49.6136 246 67 246L200 246C222.055 246 245.034 244.123 266.996 246.059C276.455 246.892 284.984 264.913 290.151 272C292.138 274.725 296.03 278.369 295.923 282C295.795 286.352 290.351 290.832 287.804 294C279.998 303.71 272.488 313.662 264.575 323.285C244.651 347.514 225.487 372.421 205.997 397C196.984 408.366 183.664 420.619 178 434z"/>
<path style="fill:#378c5e; stroke:none;" d="M212 104L212 105L284 105L261 104L212 104M288 104L288 105L291 105L288 104M300 104L300 105L305 105L300 104z"/>
<path style="fill:#6bab8a; stroke:none;" d="M305 104L306 105L305 104z"/>
<path style="fill:#f9f9f9; stroke:none;" d="M12 105L13 106L12 105M10 106L11 107L10 106z"/>
<path style="fill:#378c5e; stroke:none;" d="M308 106L309 107L308 106z"/>
<path style="fill:#6bab8a; stroke:none;" d="M309 106L310 107L309 106z"/>
<path style="fill:#378c5e; stroke:none;" d="M310 107L311 108L310 107z"/>
<path style="fill:#f9f9f9; stroke:none;" d="M7 108L8 109L7 108M5 110L6 111L5 110z"/>
<path style="fill:#378c5e; stroke:none;" d="M313 110L314 111L313 110M314 111L315 112L314 111z"/>
<path style="fill:#6bab8a; stroke:none;" d="M315 112L316 113L315 112z"/>
<path style="fill:#378c5e; stroke:none;" d="M316 114L317 115L316 114z"/>
<path style="fill:#f9f9f9; stroke:none;" d="M2 115L3 116L2 115M1.33333 116.667L1.66667 117.333L1.33333 116.667z"/>
<path style="fill:#6bab8a; stroke:none;" d="M317 116L318 117L317 116M318 119L318 123L319 123L318 119z"/>
<path style="fill:#378c5e; stroke:none;" d="M318 123L318 182L319 182L319 142L318 123M160 139L161 140L160 139z"/>
<path style="fill:#6bab8a; stroke:none;" d="M161.667 139.333L162.333 139.667L161.667 139.333z"/>
<path style="fill:#f9f9f9; stroke:none;" d="M191 188L179 184C177.13 194.485 166.943 203.136 158.278 192.956C150.02 183.254 150.104 154.097 166 151.438C173.475 150.188 174.788 157.798 179.684 160.932C182.377 162.656 187.094 160.427 190 160C188.676 131.097 150.15 134.635 143.49 159C140.001 171.763 140.379 190.079 148.613 200.985C163.664 220.923 185.095 206.147 191 188z"/>
<path style="fill:#6bab8a; stroke:none;" d="M173.667 139.333L174.333 139.667L173.667 139.333M30 140L30 209L31 209L31 162L30 140z"/>
<path style="fill:#f9f9f9; stroke:none;" d="M31 140L31 209L74 209C74 206.073 74.9107 201.051 72.9722 198.603C69.1373 193.761 47.9802 197 42 197L42 179C47.5635 179 66.3623 181.955 69.9722 177.397C71.9107 174.949 71 169.927 71 167L42 167L42 152L73 152L73 140L31 140M83 140C86.8857 149.017 100.545 164.085 99.5077 174C98.2491 186.031 85.3926 197.246 82 209L94.6096 208.397L108 186C110.437 191.853 115.114 205.743 121.213 208.397C124.791 209.953 130.163 209 134 209C129.785 198.93 115.602 183.878 115.812 173C116.015 162.488 128.381 149.944 132 140C117.121 140 114.074 146.991 108 160C100.07 147.043 99.1762 140 83 140z"/>
<path style="fill:#378c5e; stroke:none;" d="M97 140L98 141L97 140z"/>
<path style="fill:#6bab8a; stroke:none;" d="M118 140L119 141L118 140z"/>
<path style="fill:#378c5e; stroke:none;" d="M132 140L133 141L132 140z"/>
<path style="fill:#6bab8a; stroke:none;" d="M158 140L159 141L158 140z"/>
<path style="fill:#378c5e; stroke:none;" d="M177 140L178 141L177 140z"/>
<path style="fill:#f9f9f9; stroke:none;" d="M204 140L204 209L247 209L247 197L216 197L216 179L244 179L244 167L216 167L216 152L246 152L246 140L204 140z"/>
<path style="fill:#6bab8a; stroke:none;" d="M246 140L246 152L247 152L246 140z"/>
<path style="fill:#378c5e; stroke:none;" d="M260 140L261 141L260 140z"/>
<path style="fill:#6bab8a; stroke:none;" d="M260 209L261 209L261 141L272 141L272 197C273.981 192.28 273 186.08 273 181C273 169.727 275.886 153.941 272.682 143.148C271.564 139.383 264.403 138.811 261.603 141.028C258.171 143.746 260 154.062 260 158L260 209z"/>
<path style="fill:#378c5e; stroke:none;" d="M272 140L273 141L272 140z"/>
<path style="fill:#6bab8a; stroke:none;" d="M83 141L84 142L83 141M97 141L98 142L97 141M156 141L157 142L156 141z"/>
<path style="fill:#378c5e; stroke:none;" d="M179 141L180 142L179 141z"/>
<path style="fill:#f9f9f9; stroke:none;" d="M261 141L261 209L300 209L300 197L272 197L272 141L261 141z"/>
<path style="fill:#378c5e; stroke:none;" d="M98 142L99 143L98 142z"/>
<path style="fill:#6bab8a; stroke:none;" d="M117 142L118 143L117 142z"/>
<path style="fill:#378c5e; stroke:none;" d="M131 142L132 143L131 142z"/>
<path style="fill:#6bab8a; stroke:none;" d="M154 142L155 143L154 142M180 142L181 143L180 142z"/>
<path style="fill:#378c5e; stroke:none;" d="M84 143L85 144L84 143z"/>
<path style="fill:#6bab8a; stroke:none;" d="M98 143L99 144L98 143z"/>
<path style="fill:#378c5e; stroke:none;" d="M116 143L117 144L116 143z"/>
<path style="fill:#6bab8a; stroke:none;" d="M130 143L131 144L130 143M153 143L154 144L153 143z"/>
<path style="fill:#378c5e; stroke:none;" d="M182 143L183 144L182 143M99 144L100 145L99 144z"/>
<path style="fill:#6bab8a; stroke:none;" d="M116 144L117 145L116 144z"/>
<path style="fill:#378c5e; stroke:none;" d="M130 144L131 145L130 144M151 144L152 145L151 144M183 144L184 145L183 144M85 145L86 146L85 145M115 145L116 146L115 145z"/>
<path style="fill:#6bab8a; stroke:none;" d="M129 145L130 146L129 145z"/>
<path style="fill:#378c5e; stroke:none;" d="M150 145L151 146L150 145M184 145L185 146L184 145z"/>
<path style="fill:#6bab8a; stroke:none;" d="M86 146L87 147L86 146z"/>
<path style="fill:#378c5e; stroke:none;" d="M100 146L101 147L100 146M129 146L130 147L129 146M185 146L186 147L185 146M86 147L87 148L86 147M114 147L115 148L114 147z"/>
<path style="fill:#6bab8a; stroke:none;" d="M128 147L129 148L128 147M390 152L391 152C396.611 146.271 410.407 149 418 149L491 149L489 153L493 148C484.72 145.552 474.607 147 466 147L415 147C407.362 147 394 144.069 390 152M87 148L88 149L87 148M101 148L102 149L101 148M148 148L149 149L148 148M186 148L187 149L186 148z"/>
<path style="fill:#378c5e; stroke:none;" d="M87 149L88 150L87 149z"/>
<path style="fill:#6bab8a; stroke:none;" d="M113 149L114 150L113 149M127 149L128 150L127 149z"/>
<path style="fill:#378c5e; stroke:none;" d="M147 149L148 150L147 149M187 149L188 150L187 149M392 149L393 150L392 149z"/>
<path style="fill:#6bab8a; stroke:none;" d="M88 150L89 151L88 150M102 150L103 151L102 150z"/>
<path style="fill:#378c5e; stroke:none;" d="M391 150L392 151L391 150M490 150L491 151L490 150z"/>
<path style="fill:#6bab8a; stroke:none;" d="M112 151L113 152L112 151M126 151L127 152L126 151M146 151L147 152L146 151M164.667 151.333L165.333 151.667L164.667 151.333z"/>
<path style="fill:#378c5e; stroke:none;" d="M168 151L169 152L168 151z"/>
<path style="fill:#6bab8a; stroke:none;" d="M169.667 151.333L170.333 151.667L169.667 151.333z"/>
<path style="fill:#378c5e; stroke:none;" d="M188 151L189 152L188 151M489 151L490 152L489 151z"/>
<path style="fill:#6bab8a; stroke:none;" d="M42 152L42 167L43 167L42 152M89 152L90 153L89 152M103 152L104 153L103 152z"/>
<path style="fill:#378c5e; stroke:none;" d="M111 152L112 153L111 152M162 152L163 153L162 152z"/>
<path style="fill:#6bab8a; stroke:none;" d="M172 152L173 153L172 152M389 152L384 160L385 160L389 152z"/>
<path style="fill:#378c5e; stroke:none;" d="M104 153L105 154L104 153z"/>
<path style="fill:#6bab8a; stroke:none;" d="M111 153L112 154L111 153z"/>
<path style="fill:#378c5e; stroke:none;" d="M125 153L126 154L125 153z"/>
<path style="fill:#6bab8a; stroke:none;" d="M145 153L146 154L145 153M160 153L161 154L160 153z"/>
<path style="fill:#378c5e; stroke:none;" d="M173 153L174 154L173 153M389 153L390 154L389 153z"/>
<path style="fill:#6bab8a; stroke:none;" d="M488 153L482 162L488 153M90 154L91 155L90 154M104 154L105 155L104 154z"/>
<path style="fill:#378c5e; stroke:none;" d="M110 154L111 155L110 154M159 154L160 155L159 154z"/>
<path style="fill:#6bab8a; stroke:none;" d="M189 154L190 155L189 154z"/>
<path style="fill:#378c5e; stroke:none;" d="M487 154L488 155L487 154M105 155L106 156L105 155z"/>
<path style="fill:#6bab8a; stroke:none;" d="M110 155L111 156L110 155z"/>
<path style="fill:#378c5e; stroke:none;" d="M124 155L125 156L124 155z"/>
<path style="fill:#6bab8a; stroke:none;" d="M144 155L145 156L144 155z"/>
<path style="fill:#378c5e; stroke:none;" d="M158 155L159 156L158 155M388 155L389 156L388 155M486 155L487 156L486 155M91 156L92 157L91 156M109 156L110 157L109 156z"/>
<path style="fill:#6bab8a; stroke:none;" d="M123 156L124 157L123 156M157 156L158 157L157 156z"/>
<path style="fill:#378c5e; stroke:none;" d="M176 156L177 157L176 156M387 156L388 157L387 156M485 156L486 157L485 156M106 157L107 158L106 157M123 157L124 158L123 157z"/>
<path style="fill:#6bab8a; stroke:none;" d="M177 157L178 158L177 157M190 157L190 160L191 160L190 157z"/>
<path style="fill:#378c5e; stroke:none;" d="M386 157L387 158L386 157M484.333 157.667L484.667 158.333L484.333 157.667M92 158L93 159L92 158z"/>
<path style="fill:#6bab8a; stroke:none;" d="M108 158L109 159L108 158M122 158L123 159L122 158M143 158L144 159L143 158z"/>
<path style="fill:#378c5e; stroke:none;" d="M156 158L157 159L156 158M177 158L178 159L177 158z"/>
<path style="fill:#6bab8a; stroke:none;" d="M93 159L94 160L93 159M107 159L108 160L107 159z"/>
<path style="fill:#378c5e; stroke:none;" d="M122 159L123 160L122 159M385 159L386 160L385 159M483 159L484 160L483 159M93 160L94 161L93 160z"/>
<path style="fill:#6bab8a; stroke:none;" d="M121 160L122 161L121 160M155 160L156 161L155 160M178 160L179 161L178 160M186 160L187 161L186 160z"/>
<path style="fill:#378c5e; stroke:none;" d="M187 160L188 161L187 160M384 160L385 161L384 160M482 160L483 161L482 160z"/>
<path style="fill:#6bab8a; stroke:none;" d="M94 161L95 162L94 161z"/>
<path style="fill:#378c5e; stroke:none;" d="M142 161L143 162L142 161M178 161L179 162L178 161z"/>
<path style="fill:#6bab8a; stroke:none;" d="M183 161L184 162L183 161z"/>
<path style="fill:#378c5e; stroke:none;" d="M184 161L185 162L184 161z"/>
<path style="fill:#6bab8a; stroke:none;" d="M383 161L382 163L383 161z"/>
<path style="fill:#378c5e; stroke:none;" d="M94 162L95 163L94 162z"/>
<path style="fill:#6bab8a; stroke:none;" d="M120 162L121 163L120 162M142.333 162.667L142.667 163.333L142.333 162.667M179.667 162.333L180.333 162.667L179.667 162.333z"/>
<path style="fill:#378c5e; stroke:none;" d="M383 162L384 163L383 162z"/>
<path style="fill:#6bab8a; stroke:none;" d="M481 162L479 166L481 162M95 163L96 164L95 163M154.333 163.667L154.667 164.333L154.333 163.667z"/>
<path style="fill:#378c5e; stroke:none;" d="M382 163L381 166L382 163M480 163L481 164L480 163z"/>
<path style="fill:#6bab8a; stroke:none;" d="M119 164L120 165L119 164M381 164L382 165L381 164z"/>
<path style="fill:#378c5e; stroke:none;" d="M479 164L480 165L479 164z"/>
<path style="fill:#6bab8a; stroke:none;" d="M96 165L97 166L96 165M380.333 165.667L380.667 166.333L380.333 165.667z"/>
<path style="fill:#378c5e; stroke:none;" d="M118 166L119 167L118 166z"/>
<path style="fill:#6bab8a; stroke:none;" d="M478 166L472 175L478 166M97 167L98 168L97 167M141 167L141 183L142 183L141 167M379 167L359 198L360 198L379 167z"/>
<path style="fill:#378c5e; stroke:none;" d="M477 167L478 168L477 167M117 168L118 169L117 168M379 168L380 169L379 168M476 168L477 169L476 168M98 169L99 170L98 169z"/>
<path style="fill:#6bab8a; stroke:none;" d="M116 169L117 170L116 169M153 169L153 180L154 180L153 169z"/>
<path style="fill:#378c5e; stroke:none;" d="M378 169L379 170L378 169M475 169L476 170L475 169M116 170L117 171L116 170M474.333 170.667L474.667 171.333L474.333 170.667M99 171L100 172L99 171z"/>
<path style="fill:#6bab8a; stroke:none;" d="M115 171L116 172L115 171z"/>
<path style="fill:#378c5e; stroke:none;" d="M377 171L378 172L377 171z"/>
<path style="fill:#6bab8a; stroke:none;" d="M100.333 172.667L100.667 173.333L100.333 172.667z"/>
<path style="fill:#378c5e; stroke:none;" d="M115 172L116 173L115 172M376 172L377 173L376 172M473 172L474 173L473 172M472 173L473 174L472 173M99 174L100 175L99 174z"/>
<path style="fill:#6bab8a; stroke:none;" d="M115 174L116 175L115 174z"/>
<path style="fill:#378c5e; stroke:none;" d="M375 174L376 175L375 174z"/>
<path style="fill:#6bab8a; stroke:none;" d="M99 175L100 176L99 175z"/>
<path style="fill:#378c5e; stroke:none;" d="M116 175L117 176L116 175M374 175L375 176L374 175z"/>
<path style="fill:#6bab8a; stroke:none;" d="M471 175L469 179L471 175z"/>
<path style="fill:#378c5e; stroke:none;" d="M98 176L99 177L98 176z"/>
<path style="fill:#6bab8a; stroke:none;" d="M116 176L117 177L116 176z"/>
<path style="fill:#378c5e; stroke:none;" d="M470 176L471 177L470 176z"/>
<path style="fill:#6bab8a; stroke:none;" d="M98 177L99 178L98 177z"/>
<path style="fill:#378c5e; stroke:none;" d="M117 177L118 178L117 177M373 177L374 178L373 177M469 177L470 178L469 177z"/>
<path style="fill:#6bab8a; stroke:none;" d="M70 178L71 179L70 178z"/>
<path style="fill:#378c5e; stroke:none;" d="M97 178L98 179L97 178z"/>
<path style="fill:#6bab8a; stroke:none;" d="M117 178L118 179L117 178z"/>
<path style="fill:#378c5e; stroke:none;" d="M372 178L373 179L372 178z"/>
<path style="fill:#6bab8a; stroke:none;" d="M42 179L42 197L43 197L42 179z"/>
<path style="fill:#378c5e; stroke:none;" d="M118 179L119 180L118 179z"/>
<path style="fill:#6bab8a; stroke:none;" d="M468 179L465 184L468 179M96 180L97 181L96 180z"/>
<path style="fill:#378c5e; stroke:none;" d="M371 180L372 181L371 180M467 180L468 181L467 180z"/>
<path style="fill:#6bab8a; stroke:none;" d="M119 181L120 182L119 181z"/>
<path style="fill:#378c5e; stroke:none;" d="M370 181L371 182L370 181M466 181L467 182L466 181z"/>
<path style="fill:#6bab8a; stroke:none;" d="M95 182L96 183L95 182M319 182L324 191L325 191L319 182z"/>
<path style="fill:#378c5e; stroke:none;" d="M465 182L466 183L465 182z"/>
<path style="fill:#6bab8a; stroke:none;" d="M120 183L121 184L120 183M179 183L180 184L179 183z"/>
<path style="fill:#378c5e; stroke:none;" d="M180 183L181 184L180 183M369 183L370 184L369 183z"/>
<path style="fill:#6bab8a; stroke:none;" d="M94 184L95 185L94 184M154.333 184.667L154.667 185.333L154.333 184.667M182 184L183 185L182 184z"/>
<path style="fill:#378c5e; stroke:none;" d="M183 184L184 185L183 184M319 184L320 185L319 184M368 184L369 185L368 184z"/>
<path style="fill:#6bab8a; stroke:none;" d="M464 184L459 192L464 184M121 185L122 186L121 185z"/>
<path style="fill:#378c5e; stroke:none;" d="M185 185L186 186L185 185M320 185L321 186L320 185M463 185L464 186L463 185z"/>
<path style="fill:#6bab8a; stroke:none;" d="M93 186L94 187L93 186M107 186L108 187L107 186M142.333 186.667L142.667 187.333L142.333 186.667z"/>
<path style="fill:#378c5e; stroke:none;" d="M178 186L179 187L178 186z"/>
<path style="fill:#6bab8a; stroke:none;" d="M187 186L188 187L187 186z"/>
<path style="fill:#378c5e; stroke:none;" d="M188 186L189 187L188 186M367 186L368 187L367 186M462 186L463 187L462 186M92 187L93 188L92 187z"/>
<path style="fill:#6bab8a; stroke:none;" d="M108 187L109 188L108 187M122 187L123 188L122 187M178 187L179 188L178 187M190 187L191 188L190 187z"/>
<path style="fill:#378c5e; stroke:none;" d="M321 187L322 188L321 187M366 187L367 188L366 187z"/>
<path style="fill:#6bab8a; stroke:none;" d="M92 188L93 189L92 188M106 188L107 189L106 188z"/>
<path style="fill:#378c5e; stroke:none;" d="M108 188L109 189L108 188M123 188L124 189L123 188M142 188L143 189L142 188M155 188L156 189L155 188M322 188L323 189L322 188M91 189L92 190L91 189z"/>
<path style="fill:#6bab8a; stroke:none;" d="M109 189L110 190L109 189M123 189L124 190L123 189z"/>
<path style="fill:#378c5e; stroke:none;" d="M177 189L178 190L177 189z"/>
<path style="fill:#6bab8a; stroke:none;" d="M190 189L191 190L190 189z"/>
<path style="fill:#378c5e; stroke:none;" d="M365 189L366 190L365 189M460 189L461 190L460 189z"/>
<path style="fill:#6bab8a; stroke:none;" d="M105 190L106 191L105 190z"/>
<path style="fill:#378c5e; stroke:none;" d="M124 190L125 191L124 190z"/>
<path style="fill:#6bab8a; stroke:none;" d="M143 190L144 191L143 190z"/>
<path style="fill:#378c5e; stroke:none;" d="M156 190L157 191L156 190M190 190L191 191L190 190M323 190L324 191L323 190M364 190L365 191L364 190M459 190L460 191L459 190M90 191L91 192L90 191z"/>
<path style="fill:#6bab8a; stroke:none;" d="M110 191L111 192L110 191z"/>
<path style="fill:#378c5e; stroke:none;" d="M143 191L144 192L143 191z"/>
<path style="fill:#6bab8a; stroke:none;" d="M156 191L157 192L156 191z"/>
<path style="fill:#378c5e; stroke:none;" d="M176 191L177 192L176 191M324 191L326 194L324 191M104 192L105 193L104 192M125 192L126 193L125 192M157 192L158 193L157 192z"/>
<path style="fill:#6bab8a; stroke:none;" d="M189 192L190 193L189 192M325 192L326 193L325 192z"/>
<path style="fill:#378c5e; stroke:none;" d="M363 192L364 193L363 192M457 192L455 196L457 192z"/>
<path style="fill:#6bab8a; stroke:none;" d="M458.333 192.667L458.667 193.333L458.333 192.667M89 193L90 194L89 193M111 193L112 194L111 193M144 193L145 194L144 193z"/>
<path style="fill:#378c5e; stroke:none;" d="M158 193L159 194L158 193z"/>
<path style="fill:#6bab8a; stroke:none;" d="M175 193L176 194L175 193z"/>
<path style="fill:#378c5e; stroke:none;" d="M189 193L190 194L189 193z"/>
<path style="fill:#6bab8a; stroke:none;" d="M326 193L332 202L326 193z"/>
<path style="fill:#378c5e; stroke:none;" d="M362 193L363 194L362 193M103 194L104 195L103 194z"/>
<path style="fill:#6bab8a; stroke:none;" d="M126 194L127 195L126 194z"/>
<path style="fill:#378c5e; stroke:none;" d="M144 194L145 195L144 194M174 194L175 195L174 194z"/>
<path style="fill:#6bab8a; stroke:none;" d="M457 194L458 195L457 194M88 195L89 196L88 195M102 195L103 196L102 195M112 195L113 196L112 195z"/>
<path style="fill:#378c5e; stroke:none;" d="M160 195L161 196L160 195M173 195L174 196L173 195z"/>
<path style="fill:#6bab8a; stroke:none;" d="M188 195L189 196L188 195z"/>
<path style="fill:#378c5e; stroke:none;" d="M326 195L327 196L326 195M361 195L362 196L361 195z"/>
<path style="fill:#6bab8a; stroke:none;" d="M456 195L457 196L456 195z"/>
<path style="fill:#378c5e; stroke:none;" d="M102 196L103 197L102 196z"/>
<path style="fill:#6bab8a; stroke:none;" d="M127 196L128 197L127 196z"/>
<path style="fill:#378c5e; stroke:none;" d="M145 196L146 197L145 196z"/>
<path style="fill:#6bab8a; stroke:none;" d="M161 196L162 197L161 196M172 196L173 197L172 196z"/>
<path style="fill:#378c5e; stroke:none;" d="M188 196L189 197L188 196M327 196L328 197L327 196M360 196L361 197L360 196z"/>
<path style="fill:#6bab8a; stroke:none;" d="M455 196L449 205L455 196M73 197L74 198L73 197M87 197L88 198L87 197M101 197L102 198L101 197z"/>
<path style="fill:#378c5e; stroke:none;" d="M113 197L114 198L113 197z"/>
<path style="fill:#6bab8a; stroke:none;" d="M146 197L147 198L146 197M163 197L164 198L163 197z"/>
<path style="fill:#378c5e; stroke:none;" d="M164 197L165 198L164 197M169 197L170 198L169 197z"/>
<path style="fill:#6bab8a; stroke:none;" d="M170 197L171 198L170 197z"/>
<path style="fill:#378c5e; stroke:none;" d="M247 197L248 198L247 197z"/>
<path style="fill:#6bab8a; stroke:none;" d="M300 197L300 209L301 209L300 197z"/>
<path style="fill:#378c5e; stroke:none;" d="M454 197L455 198L454 197M86 198L87 199L86 198M101 198L102 199L101 198z"/>
<path style="fill:#6bab8a; stroke:none;" d="M128 198L129 199L128 198z"/>
<path style="fill:#378c5e; stroke:none;" d="M146 198L147 199L146 198M187 198L188 199L187 198z"/>
<path style="fill:#6bab8a; stroke:none;" d="M247 198L247 209L248 209L247 198z"/>
<path style="fill:#378c5e; stroke:none;" d="M328 198L329 199L328 198z"/>
<path style="fill:#6bab8a; stroke:none;" d="M358 198L357 200L358 198z"/>
<path style="fill:#378c5e; stroke:none;" d="M453 198L454 199L453 198z"/>
<path style="fill:#6bab8a; stroke:none;" d="M86 199L87 200L86 199M100 199L101 200L100 199z"/>
<path style="fill:#378c5e; stroke:none;" d="M114 199L115 200L114 199M129 199L130 200L129 199z"/>
<path style="fill:#6bab8a; stroke:none;" d="M147 199L148 200L147 199M186 199L187 200L186 199z"/>
<path style="fill:#378c5e; stroke:none;" d="M358 199L359 200L358 199M452 199L453 200L452 199M85 200L86 201L85 200z"/>
<path style="fill:#6bab8a; stroke:none;" d="M115 200L116 201L115 200M129 200L130 201L129 200z"/>
<path style="fill:#378c5e; stroke:none;" d="M186 200L187 201L186 200M329 200L330 201L329 200M357 200L356 203L357 200z"/>
<path style="fill:#6bab8a; stroke:none;" d="M99 201L100 202L99 201z"/>
<path style="fill:#378c5e; stroke:none;" d="M115 201L116 202L115 201M130 201L131 202L130 201M148 201L149 202L148 201z"/>
<path style="fill:#6bab8a; stroke:none;" d="M185 201L186 202L185 201z"/>
<path style="fill:#378c5e; stroke:none;" d="M330 201L331 202L330 201z"/>
<path style="fill:#6bab8a; stroke:none;" d="M356 201L357 202L356 201z"/>
<path style="fill:#378c5e; stroke:none;" d="M84 202L85 203L84 202z"/>
<path style="fill:#6bab8a; stroke:none;" d="M116 202L117 203L116 202z"/>
<path style="fill:#378c5e; stroke:none;" d="M149 202L150 203L149 202z"/>
<path style="fill:#6bab8a; stroke:none;" d="M184 202L185 203L184 202z"/>
<path style="fill:#378c5e; stroke:none;" d="M331 202L333 205L331 202z"/>
<path style="fill:#6bab8a; stroke:none;" d="M355 202L347 215L348 215L355 202z"/>
<path style="fill:#378c5e; stroke:none;" d="M450 202L451 203L450 202z"/>
<path style="fill:#6bab8a; stroke:none;" d="M98 203L99 204L98 203z"/>
<path style="fill:#378c5e; stroke:none;" d="M116 203L117 204L116 203M131 203L132 204L131 203M150 203L151 204L150 203z"/>
<path style="fill:#6bab8a; stroke:none;" d="M332 203L333 204L332 203z"/>
<path style="fill:#378c5e; stroke:none;" d="M449 203L450 204L449 203z"/>
<path style="fill:#6bab8a; stroke:none;" d="M83 204L84 205L83 204M117 204L118 205L117 204z"/>
<path style="fill:#378c5e; stroke:none;" d="M151 204L152 205L151 204z"/>
<path style="fill:#6bab8a; stroke:none;" d="M333 204L335 207L333 204z"/>
<path style="fill:#378c5e; stroke:none;" d="M355 204L356 205L355 204z"/>
<path style="fill:#6bab8a; stroke:none;" d="M97 205L98 206L97 205M132 205L133 206L132 205z"/>
<path style="fill:#378c5e; stroke:none;" d="M152 205L153 206L152 205z"/>
<path style="fill:#6bab8a; stroke:none;" d="M181 205L182 206L181 205z"/>
<path style="fill:#378c5e; stroke:none;" d="M354 205L355 206L354 205z"/>
<path style="fill:#6bab8a; stroke:none;" d="M448 205L442 214L448 205M82 206L83 207L82 206M118 206L119 207L118 206z"/>
<path style="fill:#378c5e; stroke:none;" d="M153 206L154 207L153 206z"/>
<path style="fill:#6bab8a; stroke:none;" d="M154 206L155 207L154 206M180 206L181 207L180 206z"/>
<path style="fill:#378c5e; stroke:none;" d="M333 206L334 207L333 206M447 206L448 207L447 206M96 207L97 208L96 207z"/>
<path style="fill:#6bab8a; stroke:none;" d="M133 207L134 208L133 207M155 207L156 208L155 207M178 207L179 208L178 207z"/>
<path style="fill:#378c5e; stroke:none;" d="M179 207L180 208L179 207M334 207L335 208L334 207M353 207L354 208L353 207M446 207L447 208L446 207z"/>
<path style="fill:#6bab8a; stroke:none;" d="M81 208L82 209L81 208M119 208L120 209L119 208M157 208L158 209L157 208M176 208L177 209L176 208z"/>
<path style="fill:#378c5e; stroke:none;" d="M177 208L178 209L177 208z"/>
<path style="fill:#6bab8a; stroke:none;" d="M335 208L339 215L340 215L335 208z"/>
<path style="fill:#378c5e; stroke:none;" d="M352 208L353 209L352 208M445 208L446 209L445 208M159 209L160 210L159 209z"/>
<path style="fill:#6bab8a; stroke:none;" d="M160 209L161 210L160 209M173 209L174 210L173 209z"/>
<path style="fill:#378c5e; stroke:none;" d="M174 209L175 210L174 209M335 209L336 210L335 209M164 210L165 211L164 210z"/>
<path style="fill:#6bab8a; stroke:none;" d="M165 210L165 211L170 211L165 210z"/>
<path style="fill:#378c5e; stroke:none;" d="M351 210L352 211L351 210M444 210L445 211L444 210M336 211L337 212L336 211M350 211L351 212L350 211M443 211L444 212L443 211M337 212L338 213L337 212M349 212L350 213L349 212M442 212L443 213L442 212M338 214L339 215L338 214M348 214L349 215L348 214z"/>
<path style="fill:#6bab8a; stroke:none;" d="M441 214L432 227C435.723 224.144 441.251 218.952 441 214z"/>
<path style="fill:#378c5e; stroke:none;" d="M339 215L340 216L339 215M347 215L348 216L347 215M440 215L441 216L440 215z"/>
<path style="fill:#6bab8a; stroke:none;" d="M340 216L345 220L345 219L340 216M346 216L345 218L346 216z"/>
<path style="fill:#378c5e; stroke:none;" d="M439 216L440 217L439 216M340 217L341 218L340 217M346 217L347 218L346 217M438 217L439 218L438 217M345.333 218.667L345.667 219.333L345.333 218.667M341 219L342 220L341 219M437 219L438 220L437 219M342 220L342 221L345 221L342 220M436 220L437 221L436 220M435 221L436 222L435 221M433 224L434 225L433 224M432 225L433 226L432 225z"/>
<path style="fill:#6bab8a; stroke:none;" d="M431 227L422 240C425.723 237.144 431.251 231.952 431 227z"/>
<path style="fill:#378c5e; stroke:none;" d="M430 228L431 229L430 228M429 229L430 230L429 229M428 230L429 231L428 230M427 232L428 233L427 232z"/>
<path style="fill:#f9f9f9; stroke:none;" d="M1 233L3 236L1 233z"/>
<path style="fill:#378c5e; stroke:none;" d="M426 233L427 234L426 233z"/>
<path style="fill:#6bab8a; stroke:none;" d="M2 234L3 235L2 234z"/>
<path style="fill:#378c5e; stroke:none;" d="M425 234L426 235L425 234z"/>
<path style="fill:#f9f9f9; stroke:none;" d="M3 237L4 238L3 237z"/>
<path style="fill:#378c5e; stroke:none;" d="M423 237L424 238L423 237z"/>
<path style="fill:#f9f9f9; stroke:none;" d="M4 238L5 239L4 238z"/>
<path style="fill:#378c5e; stroke:none;" d="M422 238L423 239L422 238M421 240L418 244L421 240z"/>
<path style="fill:#f9f9f9; stroke:none;" d="M6 241L7 242L6 241z"/>
<path style="fill:#6bab8a; stroke:none;" d="M421 241L422 242L421 241M420 242L421 243L420 242z"/>
<path style="fill:#f9f9f9; stroke:none;" d="M9 243L10 244L9 243z"/>
<path style="fill:#6bab8a; stroke:none;" d="M419 243L420 244L419 243z"/>
<path style="fill:#f9f9f9; stroke:none;" d="M10 244L11 245L10 244z"/>
<path style="fill:#6bab8a; stroke:none;" d="M418 244L409 257C412.723 254.144 418.251 248.952 418 244z"/>
<path style="fill:#f9f9f9; stroke:none;" d="M12.6667 245.333L13.3333 245.667L12.6667 245.333z"/>
<path style="fill:#378c5e; stroke:none;" d="M417 245L418 246L417 245z"/>
<path style="fill:#f9f9f9; stroke:none;" d="M15 246L15 247L18 247L15 246z"/>
<path style="fill:#6bab8a; stroke:none;" d="M18 246L18 247L203 247L249 247L268.91 247.603L278 256L269.91 246.603L252 246L213 246L18 246z"/>
<path style="fill:#378c5e; stroke:none;" d="M271 246L272 247L271 246M416 246L417 247L416 246z"/>
<path style="fill:#f9f9f9; stroke:none;" d="M95 247L96 248L95 247M96 248L99 250L98 282L98 347L98 478L98 542L99 542L99 540L100 540L99 544L101 543L100 546L102 545L102 546L105 553L107 552L112 555L118 557L117 559L118 559L120 558L121 558C121.636 561.813 136.275 560 140 560L203 560L384 560L440 560C449.707 560 460.585 558.51 470 561C462.637 550.538 451.507 542.315 445.353 531C440.982 522.965 445.109 515.328 454 513.39C457.225 512.688 460.721 513 464 513L480 513L480 436L432 436C426.036 436 416.434 437.807 411.04 434.972C402.422 430.443 395.105 414.918 389.659 407C374.656 385.19 358.615 364.065 344 342L342 342C326.272 363.896 309.883 385.304 293.884 407C288.052 414.909 280.631 430.267 271.91 434.972C265.165 438.611 251.56 436 244 436L176 436C179.535 423.283 194.656 410.328 202.789 400C224.635 372.257 247.013 344.909 268.65 317C275.66 307.959 292.274 294.172 294.783 283C295.606 279.338 291.943 275.726 290 273C285.236 266.314 276.544 248.547 267.961 247.148C246.517 243.654 221.752 247 200 247C165.753 247 130.006 244.168 96 248z"/>
<path style="fill:#378c5e; stroke:none;" d="M272 247L273 248L272 247M415 247L416 248L415 247M273 249L274 250L273 249M414 249L415 250L414 249z"/>
<path style="fill:#6bab8a; stroke:none;" d="M97 250L97 533L98 533L98 342L98 282L99 250L97 250M103.333 250.667L103.667 251.333L103.333 250.667z"/>
<path style="fill:#378c5e; stroke:none;" d="M274 250L275 251L274 250M413 250L414 251L413 250M412 251L413 252L412 251z"/>
<path style="fill:#6bab8a; stroke:none;" d="M102.667 253.333L103.333 253.667L102.667 253.333z"/>
<path style="fill:#378c5e; stroke:none;" d="M276 253L277 254L276 253M411 253L412 254L411 253M277 254L278 255L277 254M410 254L411 255L410 254M278 255L281 259L278 255M409 255L410 256L409 255z"/>
<path style="fill:#6bab8a; stroke:none;" d="M278 257L279 258L278 257M408 257L402 266L408 257M279 258L280 259L279 258z"/>
<path style="fill:#378c5e; stroke:none;" d="M407 258L408 259L407 258z"/>
<path style="fill:#6bab8a; stroke:none;" d="M280 259L281 260L280 259z"/>
<path style="fill:#378c5e; stroke:none;" d="M406 259L407 260L406 259z"/>
<path style="fill:#6bab8a; stroke:none;" d="M281 260L289 271L281 260z"/>
<path style="fill:#378c5e; stroke:none;" d="M405 260L406 261L405 260M282 261L283 262L282 261M283 262L284 263L283 262M404 262L405 263L404 262M403 263L404 264L403 263M284 264L285 265L284 264M402 264L403 265L402 264M285 265L286 266L285 265M286 266L287 267L286 266z"/>
<path style="fill:#6bab8a; stroke:none;" d="M401 266L399 270L401 266z"/>
<path style="fill:#378c5e; stroke:none;" d="M400 267L401 268L400 267M287 268L288 269L287 268M399 268L400 269L399 268M288 269L289 270L288 269z"/>
<path style="fill:#6bab8a; stroke:none;" d="M398 270L392 279L398 270M289 271C291.158 276.61 295.576 279.815 293 286C298.727 281.056 293.187 275.336 289 271z"/>
<path style="fill:#378c5e; stroke:none;" d="M397 271L398 272L397 271M290 272L291 273L290 272M396 272L397 273L396 272M291 273L292 274L291 273M395 273L396 274L395 273M292 275L293 276L292 275M394 275L395 276L394 275M293 276L294 277L293 276M393 276L394 277L393 276M294 277L295 278L294 277M392 277L393 278L392 277M295 279L296 280L295 279M391 279L390 281L391 279M296 280L297 281L296 280z"/>
<path style="fill:#6bab8a; stroke:none;" d="M391 280L392 281L391 280M390 281L395 290L396 290L390 281z"/>
<path style="fill:#378c5e; stroke:none;" d="M296 283L297 284L296 283M390 283L391 284L390 283M295 284L296 285L295 284M391 284L392 285L391 284M294 285L295 286L294 285M293 286L290 291L293 286M392 286L393 287L392 286z"/>
<path style="fill:#6bab8a; stroke:none;" d="M292 287L293 288L292 287z"/>
<path style="fill:#378c5e; stroke:none;" d="M393 287L394 288L393 287z"/>
<path style="fill:#6bab8a; stroke:none;" d="M291 288L292 289L291 288z"/>
<path style="fill:#378c5e; stroke:none;" d="M394 288L395 289L394 288z"/>
<path style="fill:#6bab8a; stroke:none;" d="M290 289L291 290L290 289M289.333 290.667L289.667 291.333L289.333 290.667M396 290L399 293L396 290z"/>
<path style="fill:#378c5e; stroke:none;" d="M396 291L397 292L396 291z"/>
<path style="fill:#6bab8a; stroke:none;" d="M288 292L285 297L286 297L288 292z"/>
<path style="fill:#378c5e; stroke:none;" d="M397 292L398 293L397 292M288 293L289 294L288 293M398 293L399 294L398 293M287 294L288 295L287 294z"/>
<path style="fill:#6bab8a; stroke:none;" d="M399 294L405 303L406 303L399 294z"/>
<path style="fill:#378c5e; stroke:none;" d="M286 295L287 296L286 295M399 295L400 296L399 295M400 296L401 297L400 296z"/>
<path style="fill:#6bab8a; stroke:none;" d="M284 297L277 307L278 307L284 297z"/>
<path style="fill:#378c5e; stroke:none;" d="M401 297L402 298L401 297M284 298L285 299L284 298M283 299L284 300L283 299M402 299L403 300L402 299M282 300L283 301L282 300M403 300L404 301L403 300M404 301L405 302L404 301M281 302L282 303L281 302M280 303L281 304L280 303z"/>
<path style="fill:#6bab8a; stroke:none;" d="M406 303L412 310L406 303z"/>
<path style="fill:#378c5e; stroke:none;" d="M279 304L280 305L279 304M406 304L407 305L406 304M278 305L279 306L278 305M407 305L408 306L407 305M408.333 306.667L408.667 307.333L408.333 306.667z"/>
<path style="fill:#6bab8a; stroke:none;" d="M276 307L265 322L266 322L276 307z"/>
<path style="fill:#378c5e; stroke:none;" d="M276 308L277 309L276 308M409 308L410 309L409 308M275 309L276 310L275 309M410 309L411 310L410 309M411 310L412 311L411 310z"/>
<path style="fill:#6bab8a; stroke:none;" d="M412 311L421 324L422 324L412 311z"/>
<path style="fill:#378c5e; stroke:none;" d="M273 312L274 313L273 312M412 312L413 313L412 312M272 313L273 314L272 313M413 313L414 314L413 313M271 314L272 315L271 314M270 315L271 316L270 315M415 316L416 317L415 316M269 317L270 318L269 317M416 317L417 318L416 317M268 318L269 319L268 318M417 318L418 319L417 318M267 319L268 320L267 319M418 320L419 321L418 320M266 321L267 322L266 321M419 321L420 322L419 321z"/>
<path style="fill:#6bab8a; stroke:none;" d="M264 322L258 331L259 331L264 322z"/>
<path style="fill:#378c5e; stroke:none;" d="M420 322L421 323L420 322M264 323L265 324L264 323M263 324L264 325L263 324z"/>
<path style="fill:#6bab8a; stroke:none;" d="M422 324L431 337L432 337L422 324z"/>
<path style="fill:#378c5e; stroke:none;" d="M422 325L423 326L422 325M423 326L424 327L423 326M261 327L262 328L261 327M260 328L261 329L260 328M259 329L260 330L259 329M425 329L426 330L425 329M426 330L427 331L426 330z"/>
<path style="fill:#6bab8a; stroke:none;" d="M257 331L250 341L251 341L257 331z"/>
<path style="fill:#378c5e; stroke:none;" d="M427 331L428 332L427 331M257 332L258 333L257 332M256 333L257 334L256 333M428 333L429 334L428 333M255 334L256 335L255 334M429 334L430 335L429 334M430.333 335.667L430.667 336.333L430.333 335.667M254 336L255 337L254 336M253 337L254 338L253 337z"/>
<path style="fill:#6bab8a; stroke:none;" d="M432 337L434 341L435 341L432 337z"/>
<path style="fill:#378c5e; stroke:none;" d="M252 338L253 339L252 338M432 338L433 339L432 338M251 339L252 340L251 339M433 339L434 340L433 339M342 340L341 342L342 340z"/>
<path style="fill:#6bab8a; stroke:none;" d="M249 341L239 355L240 355L249 341M342 341L342 342L345 343L342 341z"/>
<path style="fill:#378c5e; stroke:none;" d="M344 341L345 342L344 341z"/>
<path style="fill:#6bab8a; stroke:none;" d="M435 341L437 345L438 345L435 341z"/>
<path style="fill:#378c5e; stroke:none;" d="M249 342L250 343L249 342z"/>
<path style="fill:#6bab8a; stroke:none;" d="M341 342L342 343L341 342z"/>
<path style="fill:#378c5e; stroke:none;" d="M345 342L347 345L345 342M435 342L436 343L435 342M248 343L249 344L248 343z"/>
<path style="fill:#6bab8a; stroke:none;" d="M340 343L338 347L340 343z"/>
<path style="fill:#378c5e; stroke:none;" d="M436 343L437 344L436 343M247 344L248 345L247 344M339 344L340 345L339 344z"/>
<path style="fill:#6bab8a; stroke:none;" d="M345 344L346 345L345 344z"/>
<path style="fill:#378c5e; stroke:none;" d="M338 345L339 346L338 345z"/>
<path style="fill:#6bab8a; stroke:none;" d="M346 345L347 346L346 345M438 345L444 354L445 354L438 345z"/>
<path style="fill:#378c5e; stroke:none;" d="M246 346L247 347L246 346z"/>
<path style="fill:#6bab8a; stroke:none;" d="M347 346L352 353L347 346z"/>
<path style="fill:#378c5e; stroke:none;" d="M438 346L439 347L438 346M245 347L246 348L245 347z"/>
<path style="fill:#6bab8a; stroke:none;" d="M337 347L335 351L337 347z"/>
<path style="fill:#378c5e; stroke:none;" d="M348 347L349 348L348 347M439 347L440 348L439 347M244 348L245 349L244 348M336 348L337 349L336 348M349 348L350 349L349 348M440 348L441 349L440 348M243 349L244 350L243 349M335 349L336 350L335 349M350.333 349.667L350.667 350.333L350.333 349.667M441 350L442 351L441 350M242 351L243 352L242 351M334 351L329 358L334 351M351 351L352 352L351 351M442 351L443 352L442 351M241 352L242 353L241 352z"/>
<path style="fill:#6bab8a; stroke:none;" d="M334 352L335 353L334 352z"/>
<path style="fill:#378c5e; stroke:none;" d="M443 352L444 353L443 352M240 353L241 354L240 353z"/>
<path style="fill:#6bab8a; stroke:none;" d="M333 353L334 354L333 353z"/>
<path style="fill:#378c5e; stroke:none;" d="M352 353L354 355L352 353z"/>
<path style="fill:#6bab8a; stroke:none;" d="M332 354L333 355L332 354M352 354L353 355L352 354M445 354L453 366L454 366L445 354M238 355L239 356L238 355M353 355L354 356L353 355z"/>
<path style="fill:#378c5e; stroke:none;" d="M445 355L446 356L445 355z"/>
<path style="fill:#6bab8a; stroke:none;" d="M237 356L231 365L232 365L237 356M331 356L332 357L331 356M354 356L359 363L354 356z"/>
<path style="fill:#378c5e; stroke:none;" d="M446 356L447 357L446 356M237 357L238 358L237 357z"/>
<path style="fill:#6bab8a; stroke:none;" d="M330 357L331 358L330 357z"/>
<path style="fill:#378c5e; stroke:none;" d="M355 357L356 358L355 357M236 358L237 359L236 358z"/>
<path style="fill:#6bab8a; stroke:none;" d="M329 358L321 370C324.419 367.217 329.234 362.626 329 358z"/>
<path style="fill:#378c5e; stroke:none;" d="M356 358L357 359L356 358M447 358L448 359L447 358M235 359L236 360L235 359M448 359L449 360L448 359M327 360L328 361L327 360M357 360L358 361L357 360M449 360L450 361L449 360M234 361L235 362L234 361M326 361L327 362L326 361M358 361L359 362L358 361M233 362L234 363L233 362M450 362L451 363L450 362M232 363L233 364L232 363M325 363L326 364L325 363z"/>
<path style="fill:#6bab8a; stroke:none;" d="M359 363L364 370L359 363z"/>
<path style="fill:#378c5e; stroke:none;" d="M451 363L452 364L451 363M324 364L325 365L324 364M360 364L361 365L360 364M452 364L453 365L452 364z"/>
<path style="fill:#6bab8a; stroke:none;" d="M230 365L223 375L224 375L230 365z"/>
<path style="fill:#378c5e; stroke:none;" d="M323 365L324 366L323 365M361 365L362 366L361 365M230 366L231 367L230 366z"/>
<path style="fill:#6bab8a; stroke:none;" d="M454 366L460 375L461 375L454 366z"/>
<path style="fill:#378c5e; stroke:none;" d="M229 367L230 368L229 367M322 367L323 368L322 367M362 367L363 368L362 367M454 367L455 368L454 367M228 368L229 369L228 368M321 368L322 369L321 368M363 368L364 369L363 368M455 368L456 369L455 368M456 369L457 370L456 369M227 370L228 371L227 370z"/>
<path style="fill:#6bab8a; stroke:none;" d="M320 370L301 397C306.464 392.552 320.585 377.112 320 370z"/>
<path style="fill:#378c5e; stroke:none;" d="M364 370L367 373L364 370M226 371L227 372L226 371M319 371L320 372L319 371z"/>
<path style="fill:#6bab8a; stroke:none;" d="M364 371L365 372L364 371z"/>
<path style="fill:#378c5e; stroke:none;" d="M457 371L458 372L457 371M225 372L226 373L225 372M318 372L319 373L318 372z"/>
<path style="fill:#6bab8a; stroke:none;" d="M365 372L366 373L365 372z"/>
<path style="fill:#378c5e; stroke:none;" d="M458 372L459 373L458 372M224 373L225 374L224 373z"/>
<path style="fill:#6bab8a; stroke:none;" d="M366 373L371 380L366 373z"/>
<path style="fill:#378c5e; stroke:none;" d="M459 373L460 374L459 373M367 374L368 375L367 374z"/>
<path style="fill:#6bab8a; stroke:none;" d="M222 375L212 389L213 389L222 375z"/>
<path style="fill:#378c5e; stroke:none;" d="M316 375L317 376L316 375M368 375L369 376L368 375z"/>
<path style="fill:#6bab8a; stroke:none;" d="M461 375L463 379L464 379L461 375z"/>
<path style="fill:#378c5e; stroke:none;" d="M222 376L223 377L222 376M315 376L316 377L315 376M461 376L462 377L461 376M221 377L222 378L221 377M314 377L315 378L314 377M369 377L370 378L369 377M462 377L463 378L462 377M370 378L371 379L370 378M313 379L314 380L313 379z"/>
<path style="fill:#6bab8a; stroke:none;" d="M464 379L476 396L477 396L464 379z"/>
<path style="fill:#378c5e; stroke:none;" d="M219 380L220 381L219 380M312 380L313 381L312 380z"/>
<path style="fill:#6bab8a; stroke:none;" d="M371 380L376 387L371 380z"/>
<path style="fill:#378c5e; stroke:none;" d="M464 380L465 381L464 380M218 381L219 382L218 381M311 381L312 382L311 381M372 381L373 382L372 381M465 381L466 382L465 381M217 382L218 383L217 382M373 382L374 383L373 382M466 382L467 383L466 382M216 383L217 384L216 383M310 383L311 384L310 383M309 384L310 385L309 384M374 384L375 385L374 384M467 384L468 385L467 384M215 385L216 386L215 385M308 385L309 386L308 385M375 385L376 386L375 385M468 385L469 386L468 385M214 386L215 387L214 386M213 387L214 388L213 387M307 387L308 388L307 387z"/>
<path style="fill:#6bab8a; stroke:none;" d="M376 387L383 397L376 387z"/>
<path style="fill:#378c5e; stroke:none;" d="M306 388L307 389L306 388M377 388L378 389L377 388M470 388L471 389L470 388z"/>
<path style="fill:#6bab8a; stroke:none;" d="M211 389L212 390L211 389z"/>
<path style="fill:#378c5e; stroke:none;" d="M378 389L379 390L378 389M471 389L472 390L471 389z"/>
<path style="fill:#6bab8a; stroke:none;" d="M210 390L204 399L205 399L210 390z"/>
<path style="fill:#378c5e; stroke:none;" d="M305 390L306 391L305 390M472 390L473 391L472 390M210 391L211 392L210 391M304 391L305 392L304 391M379 391L380 392L379 391M209 392L210 393L209 392M303 392L304 393L303 392M380 392L381 393L380 392M474 393L475 394L474 393M302 394L303 395L302 394M381 394L382 395L381 394M475 394L476 395L475 394M207 395L208 396L207 395M301 395L302 396L301 395M382 395L383 396L382 395M206 396L207 397L206 396z"/>
<path style="fill:#6bab8a; stroke:none;" d="M477 396C479.082 399.559 480.72 402.066 485 402L485 401L482 402L477 396M492 397L492 398L579 398L552 397L492 397z"/>
<path style="fill:#378c5e; stroke:none;" d="M205 397L206 398L205 397z"/>
<path style="fill:#6bab8a; stroke:none;" d="M300 397L292 409C295.419 406.217 300.234 401.626 300 397M383 397L388 404L383 397z"/>
<path style="fill:#378c5e; stroke:none;" d="M477 397L478 398L477 397M572 397L573 398L572 397M579.667 397.333L580.333 397.667L579.667 397.333z"/>
<path style="fill:#6bab8a; stroke:none;" d="M581 397L581 398L594 398L581 397z"/>
<path style="fill:#f9f9f9; stroke:none;" d="M594 397L595 398L594 397z"/>
<path style="fill:#378c5e; stroke:none;" d="M299 398L300 399L299 398M384 398L385 399L384 398M478 398L479 399L478 398z"/>
<path style="fill:#6bab8a; stroke:none;" d="M489 398L490 399L489 398z"/>
<path style="fill:#378c5e; stroke:none;" d="M490.667 398.333L491.333 398.667L490.667 398.333M594 398L595 399L594 398z"/>
<path style="fill:#6bab8a; stroke:none;" d="M595 398L596 399L595 398z"/>
<path style="fill:#f9f9f9; stroke:none;" d="M596 398L597 399L596 398z"/>
<path style="fill:#6bab8a; stroke:none;" d="M203 399L200 404L201 404L203 399z"/>
<path style="fill:#378c5e; stroke:none;" d="M298 399L299 400L298 399M385 399L386 400L385 399M487 399L488 400L487 399M596 399L596 400L599 401L596 399z"/>
<path style="fill:#6bab8a; stroke:none;" d="M598 399L599 400L598 399z"/>
<path style="fill:#378c5e; stroke:none;" d="M203 400L204 401L203 400M297 400L298 401L297 400M479 400L480 401L479 400M486 400L487 401L486 400z"/>
<path style="fill:#6bab8a; stroke:none;" d="M599 400L600 401L599 400z"/>
<path style="fill:#378c5e; stroke:none;" d="M202 401L203 402L202 401M386 401L387 402L386 401M480 401L481 402L480 401z"/>
<path style="fill:#6bab8a; stroke:none;" d="M600 401L601 402L600 401z"/>
<path style="fill:#378c5e; stroke:none;" d="M201 402L202 403L201 402M296 402L297 403L296 402M387 402L388 403L387 402M481 402L482 403L481 402M484 402L485 403L484 402z"/>
<path style="fill:#6bab8a; stroke:none;" d="M601 402L603 404L601 402z"/>
<path style="fill:#378c5e; stroke:none;" d="M295 403L296 404L295 403M482 403L482 405L484 403L482 403M601 403L602 404L601 403z"/>
<path style="fill:#6bab8a; stroke:none;" d="M199 404L196 409L197 409L199 404z"/>
<path style="fill:#378c5e; stroke:none;" d="M294 404L295 405L294 404z"/>
<path style="fill:#6bab8a; stroke:none;" d="M388 404L400 421L388 404z"/>
<path style="fill:#378c5e; stroke:none;" d="M602 404L603 405L602 404M199 405L200 406L199 405M389 405L390 406L389 405M481 405L481 409L482 409L481 405z"/>
<path style="fill:#6bab8a; stroke:none;" d="M603.333 405.667L603.667 406.333L603.333 405.667z"/>
<path style="fill:#378c5e; stroke:none;" d="M198 406L199 407L198 406M293 406L294 407L293 406M390 406L391 407L390 406M197 407L198 408L197 407M292 407L293 408L292 407M603 407L604 444L604 513L605 513L605 436C605 428.177 607.819 413.361 603 407z"/>
<path style="fill:#f9f9f9; stroke:none;" d="M604 407L605 408L604 407z"/>
<path style="fill:#378c5e; stroke:none;" d="M391 408L392 409L391 408z"/>
<path style="fill:#6bab8a; stroke:none;" d="M195 409L192 414L193 414L195 409M291 409L286 417L291 409z"/>
<path style="fill:#378c5e; stroke:none;" d="M392 409L393 410L392 409M195 410L196 411L195 410M290 410L291 411L290 410M480 410L480 511L481 511L481 441L480 410M194 411L195 412L194 411M289 411L290 412L289 411M193 412L194 413L193 412M288 412L289 413L288 412M394 412L395 413L394 412M395 413L396 414L395 413z"/>
<path style="fill:#6bab8a; stroke:none;" d="M191 414L181 427L191 414z"/>
<path style="fill:#378c5e; stroke:none;" d="M287 414L288 415L287 414M191 415L192 416L191 415M286 415L287 416L286 415M396 415L397 416L396 415M190 416L191 417L190 416M397 416L398 417L397 416M189 417L190 418L189 417M285 417L283 420L285 417z"/>
<path style="fill:#6bab8a; stroke:none;" d="M285 418L286 419L285 418z"/>
<path style="fill:#378c5e; stroke:none;" d="M398 418L399 419L398 418M188 419L189 420L188 419z"/>
<path style="fill:#6bab8a; stroke:none;" d="M284 419L285 420L284 419z"/>
<path style="fill:#378c5e; stroke:none;" d="M399 419L400 420L399 419M187 420L188 421L187 420z"/>
<path style="fill:#6bab8a; stroke:none;" d="M283 420L284 421L283 420z"/>
<path style="fill:#378c5e; stroke:none;" d="M186 421L187 422L186 421M282 421L277 428L282 421z"/>
<path style="fill:#6bab8a; stroke:none;" d="M400 421L410.093 434.972L431 436L480 436L480 434L431 434L410.184 432.972L400 421z"/>
<path style="fill:#378c5e; stroke:none;" d="M185 422L186 423L185 422z"/>
<path style="fill:#6bab8a; stroke:none;" d="M282 422L283 423L282 422z"/>
<path style="fill:#378c5e; stroke:none;" d="M401 422L402 423L401 422z"/>
<path style="fill:#6bab8a; stroke:none;" d="M281 423L282 424L281 423z"/>
<path style="fill:#378c5e; stroke:none;" d="M402 423L403 424L402 423M184 424L185 425L184 424z"/>
<path style="fill:#6bab8a; stroke:none;" d="M280.333 424.667L280.667 425.333L280.333 424.667z"/>
<path style="fill:#378c5e; stroke:none;" d="M183 425L184 426L183 425M403 425L404 426L403 425M182 426L183 427L182 426z"/>
<path style="fill:#6bab8a; stroke:none;" d="M279 426L280 427L279 426z"/>
<path style="fill:#378c5e; stroke:none;" d="M404 426L405 427L404 426M181 427L182 428L181 427z"/>
<path style="fill:#6bab8a; stroke:none;" d="M278 427L279 428L278 427z"/>
<path style="fill:#378c5e; stroke:none;" d="M405 427L406 428L405 427z"/>
<path style="fill:#6bab8a; stroke:none;" d="M180 428L176 436L251 436C261.071 436 273.312 439.033 278 428L277 428C271.267 436.868 259.409 434 250 434L177 434L180 428z"/>
<path style="fill:#378c5e; stroke:none;" d="M180 429L181 430L180 429M276 429L277 430L276 429M406 429L407 430L406 429M179 430L180 431L179 430M275 430L276 431L275 430M407 430L408 431L407 430M178 431L179 432L178 431M274 431L275 432L274 431M177.333 432.667L177.667 433.333L177.333 432.667M408 432L409 433L408 432M273 433L274 434L273 433M409 433L410 434L409 433z"/>
<path style="fill:#6bab8a; stroke:none;" d="M480 511L481 512L480 511z"/>
<path style="fill:#378c5e; stroke:none;" d="M480 512L481 513L480 512z"/>
<path style="fill:#6bab8a; stroke:none;" d="M452 513L452 514L455 514L452 513z"/>
<path style="fill:#378c5e; stroke:none;" d="M455 513L455 514L480 514L455 513M605 513L605 514L632 514L605 513z"/>
<path style="fill:#6bab8a; stroke:none;" d="M632 513L633 514L632 513z"/>
<path style="fill:#f9f9f9; stroke:none;" d="M633 513L634 514L633 513z"/>
<path style="fill:#6bab8a; stroke:none;" d="M450 514L451 515L450 514z"/>
<path style="fill:#378c5e; stroke:none;" d="M451 514L452 515L451 514M633 514L634 515L633 514z"/>
<path style="fill:#6bab8a; stroke:none;" d="M634.667 514.333L635.333 514.667L634.667 514.333z"/>
<path style="fill:#378c5e; stroke:none;" d="M448.667 515.333L449.333 515.667L448.667 515.333M636 515L638 517L636 515z"/>
<path style="fill:#6bab8a; stroke:none;" d="M637 515L638 516L637 515M446 516L447 517L446 516z"/>
<path style="fill:#378c5e; stroke:none;" d="M447 516L448 517L447 516z"/>
<path style="fill:#6bab8a; stroke:none;" d="M638 516L639 517L638 516M445 517L446 518L445 517M639 517L640 518L639 517z"/>
<path style="fill:#378c5e; stroke:none;" d="M445 518L446 519L445 518z"/>
<path style="fill:#6bab8a; stroke:none;" d="M640 518L641 519L640 518z"/>
<path style="fill:#378c5e; stroke:none;" d="M444 519L445 520L444 519M640 519L641 520L640 519z"/>
<path style="fill:#6bab8a; stroke:none;" d="M443 520L443 528L444 528L443 520z"/>
<path style="fill:#378c5e; stroke:none;" d="M444.333 527.667L444.667 528.333L444.333 527.667M640 527L640 530L641 530L640 527z"/>
<path style="fill:#6bab8a; stroke:none;" d="M444 529L445 530L444 529z"/>
<path style="fill:#378c5e; stroke:none;" d="M445 530L446 531L445 530z"/>
<path style="fill:#6bab8a; stroke:none;" d="M640 530L639 533L640 533L640 530M104 531L103 533L105 533L104 531M445 531L446 532L445 531z"/>
<path style="fill:#010101; stroke:none;" d="M640 531C633.677 542.345 622.933 551.559 614.093 560.985C600.703 575.264 587.431 589.677 574.089 604C564.721 614.058 555.802 628.24 543 634L543 635L641 635L641 563L640 531z"/>
<path style="fill:#378c5e; stroke:none;" d="M446 532L447 533L446 532z"/>
<path style="fill:#6bab8a; stroke:none;" d="M446 533L447 534L446 533z"/>
<path style="fill:#378c5e; stroke:none;" d="M638 533L639 534L638 533z"/>
<path style="fill:#6bab8a; stroke:none;" d="M97 534L98 535L97 534z"/>
<path style="fill:#378c5e; stroke:none;" d="M447 534L448 535L447 534M637 534L638 535L637 534M448 535L449 536L448 535z"/>
<path style="fill:#6bab8a; stroke:none;" d="M637 535L638 536L637 535M103 536L104 537L103 536z"/>
<path style="fill:#378c5e; stroke:none;" d="M449 536L450 537L449 536z"/>
<path style="fill:#6bab8a; stroke:none;" d="M636 536L637 537L636 536M449 537L450 538L449 537z"/>
<path style="fill:#378c5e; stroke:none;" d="M635 537L627 546L635 537z"/>
<path style="fill:#6bab8a; stroke:none;" d="M450 538L451 539L450 538M635 538L636 539L635 538M451 539L452 540L451 539M634 539L635 540L634 539M99 540L99 543L100 543L99 540M105 540L106 541L105 540M452 540L453 541L452 540M633 540L634 541L633 540M453 541L454 542L453 541z"/>
<path style="fill:#f9f9f9; stroke:none;" d="M632 541L633 542L632 541z"/>
<path style="fill:#6bab8a; stroke:none;" d="M454 542L455 543L454 542M631 542L632 543L631 542M100.333 543.667L100.667 544.333L100.333 543.667z"/>
<path style="fill:#378c5e; stroke:none;" d="M455 543L456 544L455 543z"/>
<path style="fill:#6bab8a; stroke:none;" d="M630 543L631 544L630 543M107.667 544.333L108.333 544.667L107.667 544.333z"/>
<path style="fill:#378c5e; stroke:none;" d="M456 544L461 549L456 544z"/>
<path style="fill:#6bab8a; stroke:none;" d="M629 544L630 545L629 544M101.333 545.667L101.667 546.333L101.333 545.667M456 545L457 546L456 545M628 545L629 546L628 545M457 546L458 547L457 546M627 546L628 547L627 546M102 547L105 550L102 547M458 547L459 548L458 547M626 547L627 548L626 547M459 548L460 549L459 548M625 548L626 549L625 548M460 549L461 550L460 549M624 549L625 550L624 549M461 550L462 551L461 550M623 550L624 551L623 550M105 551L106 552L105 551z"/>
<path style="fill:#378c5e; stroke:none;" d="M462 551L474 563L462 551z"/>
<path style="fill:#6bab8a; stroke:none;" d="M622 551L623 552L622 551M106 552L107 553L106 552M122 552L122 553L460 553L430 552L361 552L122 552M462 552L463 553L462 552z"/>
<path style="fill:#378c5e; stroke:none;" d="M621 552L622 553L621 552z"/>
<path style="fill:#6bab8a; stroke:none;" d="M109 553L110 554L109 553M463 553L464 554L463 553z"/>
<path style="fill:#378c5e; stroke:none;" d="M620 553L613 561L620 553z"/>
<path style="fill:#6bab8a; stroke:none;" d="M464 554L465 555L464 554M620 554L621 555L620 554M111 555L112 556L111 555M465 555L466 556L465 555M619 555L620 556L619 555M113 556L114 557L113 556M466 556L467 557L466 556M618 556L619 557L618 556M116.667 557.333L117.333 557.667L116.667 557.333M467 557L468 558L467 557M617 557L618 558L617 557M119.667 558.333L120.333 558.667L119.667 558.333M122 558L123 559L122 558M468 558L469 559L468 558M616 558L617 559L616 558M463 559L464 560L463 559M469 559L470 560L469 559M615 559L616 560L615 559M470 560L471 561L470 560M614 560L615 561L614 560M471 561L472 562L471 561M613 561L614 562L613 561M472 562L473 563L472 562z"/>
<path style="fill:#378c5e; stroke:none;" d="M612 562L613 563L612 562z"/>
<path style="fill:#6bab8a; stroke:none;" d="M473 563L474 564L473 563z"/>
<path style="fill:#378c5e; stroke:none;" d="M611 563L612 564L611 563z"/>
<path style="fill:#6bab8a; stroke:none;" d="M474 564L475 565L474 564z"/>
<path style="fill:#378c5e; stroke:none;" d="M610 564L609 566L610 564z"/>
<path style="fill:#6bab8a; stroke:none;" d="M475 565L476 566L475 565M610 565L611 566L610 565z"/>
<path style="fill:#378c5e; stroke:none;" d="M476 566L477 567L476 566M608 566L604 571L608 566z"/>
<path style="fill:#6bab8a; stroke:none;" d="M477 567L478 568L477 567M608 567L609 568L608 567z"/>
<path style="fill:#378c5e; stroke:none;" d="M478 568L479 569L478 568z"/>
<path style="fill:#6bab8a; stroke:none;" d="M607 568L608 569L607 568z"/>
<path style="fill:#378c5e; stroke:none;" d="M479 569L484 574L479 569z"/>
<path style="fill:#6bab8a; stroke:none;" d="M606 569L607 570L606 569M479 570L480 571L479 570M605 570L606 571L605 570M480 571L481 572L480 571M604 571L605 572L604 571M481 572L482 573L481 572M603 572L604 573L603 572M482 573L483 574L482 573M602 573L603 574L602 573M483 574L484 575L483 574M601 574L602 575L601 574M484 575L485 576L484 575M600 575L601 576L600 575M485 576L486 577L485 576M599 576L600 577L599 576z"/>
<path style="fill:#378c5e; stroke:none;" d="M486 577L487 578L486 577M598 577L599 578L598 577M487 578L488 579L487 578M597 578L596 580L597 578M488 579L489 580L488 579z"/>
<path style="fill:#6bab8a; stroke:none;" d="M597 579L598 580L597 579z"/>
<path style="fill:#378c5e; stroke:none;" d="M489 580L490 581L489 580M595 580L594 582L595 580M490 581L491 582L490 581z"/>
<path style="fill:#6bab8a; stroke:none;" d="M595 581L596 582L595 581z"/>
<path style="fill:#378c5e; stroke:none;" d="M491 582L493 584L491 582M593 582L592 584L593 582z"/>
<path style="fill:#6bab8a; stroke:none;" d="M491 583L492 584L491 583M593 583L594 584L593 583z"/>
<path style="fill:#378c5e; stroke:none;" d="M493 584L494 585L493 584z"/>
<path style="fill:#6bab8a; stroke:none;" d="M592 584L593 585L592 584z"/>
<path style="fill:#378c5e; stroke:none;" d="M494 585L495 586L494 585z"/>
<path style="fill:#6bab8a; stroke:none;" d="M591 585L592 586L591 585M494 586L495 587L494 586M590 586L591 587L590 586M495 587L497 589L495 587z"/>
<path style="fill:#378c5e; stroke:none;" d="M496 587L497 588L496 587z"/>
<path style="fill:#6bab8a; stroke:none;" d="M589 587L590 588L589 587M588 588L589 589L588 588M497 589L499 591L497 589z"/>
<path style="fill:#378c5e; stroke:none;" d="M498 589L499 590L498 589z"/>
<path style="fill:#6bab8a; stroke:none;" d="M587 589L588 590L587 589z"/>
<path style="fill:#378c5e; stroke:none;" d="M586 590L587 591L586 590z"/>
<path style="fill:#6bab8a; stroke:none;" d="M499 591L500 592L499 591z"/>
<path style="fill:#378c5e; stroke:none;" d="M585 591L584 593L585 591z"/>
<path style="fill:#6bab8a; stroke:none;" d="M500 592L501 593L500 592M585 592L586 593L585 592M501 593L502 594L501 593z"/>
<path style="fill:#378c5e; stroke:none;" d="M583 593L580 597L583 593z"/>
<path style="fill:#6bab8a; stroke:none;" d="M502 594L503 595L502 594M583 594L584 595L583 594z"/>
<path style="fill:#378c5e; stroke:none;" d="M503 595L504 596L503 595z"/>
<path style="fill:#6bab8a; stroke:none;" d="M582 595L583 596L582 595z"/>
<path style="fill:#378c5e; stroke:none;" d="M504 596L507 599L504 596z"/>
<path style="fill:#6bab8a; stroke:none;" d="M581 596L582 597L581 596M504 597L505 598L504 597M580 597L581 598L580 597M505 598L506 599L505 598z"/>
<path style="fill:#378c5e; stroke:none;" d="M578 598L579 599L578 598z"/>
<path style="fill:#6bab8a; stroke:none;" d="M579 598L580 599L579 598M506 599L507 600L506 599M578 599L579 600L578 599M507 600L509 602L507 600z"/>
<path style="fill:#378c5e; stroke:none;" d="M508 600L509 601L508 600z"/>
<path style="fill:#6bab8a; stroke:none;" d="M577 600L578 601L577 600M576 601L577 602L576 601M509 602L510 603L509 602M575 602L576 603L575 602z"/>
<path style="fill:#378c5e; stroke:none;" d="M510 603L511 604L510 603z"/>
<path style="fill:#6bab8a; stroke:none;" d="M574 603L575 604L574 603M511 604L512 605L511 604M573 604L574 605L573 604z"/>
<path style="fill:#378c5e; stroke:none;" d="M512 605L513 606L512 605z"/>
<path style="fill:#6bab8a; stroke:none;" d="M572 605L573 606L572 605M513 606L514 607L513 606M571 606L572 607L571 606z"/>
<path style="fill:#378c5e; stroke:none;" d="M514 607L515 608L514 607M570 607L566 612L570 607M515 608L516 609L515 608z"/>
<path style="fill:#6bab8a; stroke:none;" d="M570 608L571 609L570 608z"/>
<path style="fill:#378c5e; stroke:none;" d="M516 609L517 610L516 609z"/>
<path style="fill:#6bab8a; stroke:none;" d="M569 609L570 610L569 609z"/>
<path style="fill:#378c5e; stroke:none;" d="M517 610L520 613L517 610z"/>
<path style="fill:#6bab8a; stroke:none;" d="M568 610L569 611L568 610M517 611L518 612L517 611M567 611L568 612L567 611M518 612L519 613L518 612M566 612L567 613L566 612M519 613L520 614L519 613M565 613L566 614L565 613M520 614L523 617L520 614z"/>
<path style="fill:#378c5e; stroke:none;" d="M521 614L522 615L521 614z"/>
<path style="fill:#6bab8a; stroke:none;" d="M564 614L565 615L564 614z"/>
<path style="fill:#378c5e; stroke:none;" d="M522 615L523 616L522 615z"/>
<path style="fill:#6bab8a; stroke:none;" d="M563 615L564 616L563 615z"/>
<path style="fill:#378c5e; stroke:none;" d="M562 616L563 617L562 616z"/>
<path style="fill:#6bab8a; stroke:none;" d="M523 617L524 618L523 617z"/>
<path style="fill:#378c5e; stroke:none;" d="M561 617L562 618L561 617z"/>
<path style="fill:#6bab8a; stroke:none;" d="M524 618L525 619L524 618z"/>
<path style="fill:#378c5e; stroke:none;" d="M560 618L557 622L560 618z"/>
<path style="fill:#6bab8a; stroke:none;" d="M525 619L526 620L525 619M560 619L561 620L560 619z"/>
<path style="fill:#378c5e; stroke:none;" d="M526 620L527 621L526 620z"/>
<path style="fill:#6bab8a; stroke:none;" d="M559 620L560 621L559 620z"/>
<path style="fill:#378c5e; stroke:none;" d="M527 621L530 624L527 621z"/>
<path style="fill:#6bab8a; stroke:none;" d="M558 621L559 622L558 621M527 622L528 623L527 622M557 622L558 623L557 622M528 623L529 624L528 623z"/>
<path style="fill:#378c5e; stroke:none;" d="M555 623L556 624L555 623z"/>
<path style="fill:#6bab8a; stroke:none;" d="M556 623L557 624L556 623M529 624L530 625L529 624M555 624L556 625L555 624M530 625L533 628L530 625z"/>
<path style="fill:#378c5e; stroke:none;" d="M531 625L532 626L531 625z"/>
<path style="fill:#6bab8a; stroke:none;" d="M554 625L555 626L554 625z"/>
<path style="fill:#378c5e; stroke:none;" d="M532 626L533 627L532 626z"/>
<path style="fill:#6bab8a; stroke:none;" d="M553 626L554 627L553 626M552 627L553 628L552 627M533 628L534 629L533 628M551 628L552 629L551 628M534 629L535 630L534 629M550 629L551 630L550 629z"/>
<path style="fill:#378c5e; stroke:none;" d="M535 630L536 631L535 630z"/>
<path style="fill:#6bab8a; stroke:none;" d="M549 630L550 631L549 630M536 631L539 633L539 632L536 631z"/>
<path style="fill:#378c5e; stroke:none;" d="M537 631L538 632L537 631z"/>
<path style="fill:#6bab8a; stroke:none;" d="M548 631L549 632L548 631z"/>
<path style="fill:#378c5e; stroke:none;" d="M539 632L540 633L539 632M543 632L543 633L547 633L543 632z"/>
<path style="fill:#6bab8a; stroke:none;" d="M547 632L548 633L547 632z"/>
<path style="fill:#f9f9f9; stroke:none;" d="M540 633L541 634L540 633z"/>
<path style="fill:#6bab8a; stroke:none;" d="M541.667 633.333L542.333 633.667L541.667 633.333z"/>
<path style="fill:#f9f9f9; stroke:none;" d="M543 633L544 634L543 633M542 634L543 635L542 634z"/>
</svg>
